<svg xmlns="http://www.w3.org/2000/svg" viewBox="0 0 200 200">
  <defs>
    <linearGradient id="grad1" x1="0%" y1="0%" x2="100%" y2="100%">
      <stop offset="0%" style="stop-color:#ec4899;stop-opacity:1" />
      <stop offset="100%" style="stop-color:#f43f5e;stop-opacity:1" />
    </linearGradient>
  </defs>
  
  <!-- Background Circle -->
  <circle cx="100" cy="100" r="100" fill="url(#grad1)"/>
  
  <!-- Face -->
  <circle cx="100" cy="90" r="50" fill="#FFE4C4"/>
  
  <!-- Hair -->
  <ellipse cx="100" cy="60" rx="55" ry="45" fill="#8B4513"/>
  <path d="M 45 70 Q 50 50 70 45 Q 90 40 100 40 Q 110 40 130 45 Q 150 50 155 70" fill="#8B4513"/>
  
  <!-- Eyes -->
  <circle cx="85" cy="85" r="5" fill="#2C1810"/>
  <circle cx="115" cy="85" r="5" fill="#2C1810"/>
  <circle cx="87" cy="83" r="2" fill="#FFFFFF"/>
  <circle cx="117" cy="83" r="2" fill="#FFFFFF"/>
  
  <!-- Smile -->
  <path d="M 80 105 Q 100 115 120 105" stroke="#2C1810" stroke-width="2" fill="none" stroke-linecap="round"/>
  
  <!-- Blush -->
  <circle cx="70" cy="95" r="8" fill="#FFB6C1" opacity="0.5"/>
  <circle cx="130" cy="95" r="8" fill="#FFB6C1" opacity="0.5"/>
  
  <!-- Body -->
  <ellipse cx="100" cy="160" rx="45" ry="40" fill="#FFFFFF"/>
  
  <!-- Sparkles -->
  <circle cx="40" cy="40" r="3" fill="#FFFFFF" opacity="0.8"/>
  <circle cx="160" cy="50" r="2" fill="#FFFFFF" opacity="0.8"/>
  <circle cx="170" cy="120" r="3" fill="#FFFFFF" opacity="0.8"/>
  <circle cx="30" cy="130" r="2" fill="#FFFFFF" opacity="0.8"/>
</svg>
