<?xml version="1.0" encoding="UTF-8"?>
<svg version="1.1" xmlns="http://www.w3.org/2000/svg" width="123" height="153">
<path d="M0 0 C40.59 0 81.18 0 123 0 C123 50.49 123 100.98 123 153 C82.41 153 41.82 153 0 153 C0 102.51 0 52.02 0 0 Z " fill="#FEFEFE" transform="translate(0,0)"/>
<path d="M0 0 C1.8125 1.1875 1.8125 1.1875 3 3 C3.375 5.5 3.375 5.5 3 8 C2.50113281 8.37769531 2.00226562 8.75539063 1.48828125 9.14453125 C-0.90831375 12.13241216 -0.31193682 15.53416272 -0.1875 19.1875 C-0.17396484 19.93708984 -0.16042969 20.68667969 -0.14648438 21.45898438 C-0.11118539 23.30629767 -0.05737917 25.15324066 0 27 C3.76543194 26.45380548 5.18817536 25.02518177 7.5625 22.125 C10.91587437 18.07705143 10.91587437 18.07705143 12.71875 16.42578125 C14.33410828 14.95517401 14.33410828 14.95517401 13.9375 12.0625 C14 9 14 9 15.6875 6.5625 C18 5 18 5 20.625 5.125 C23 6 23 6 25 8 C25.3493141 10.72464997 25.41900494 12.33452156 23.9375 14.6875 C22 16 22 16 18.75 16.6875 C13.55884221 18.50440523 11.2905187 21.74024436 8 26 C7.195625 26.99 6.39125 27.98 5.5625 29 C5.046875 29.66 4.53125 30.32 4 31 C5.65 31 7.3 31 9 31 C9 31.66 9 32.32 9 33 C8.01 33.33 7.02 33.66 6 34 C6.495 35.98 6.495 35.98 7 38 C7.99 37.34 8.98 36.68 10 36 C10 37.65 10 39.3 10 41 C11.32 41.33 12.64 41.66 14 42 C14.33 41.01 14.66 40.02 15 39 C17 38 17 38 20.5 38.5625 C23.91738656 38.65655651 24.9732228 38.02122912 27.71484375 35.84765625 C32.40883618 31.34415262 32.40883618 31.34415262 36 26 C35.34 26 34.68 26 34 26 C34 25.34 34 24.68 34 24 C34.66 24 35.32 24 36 24 C36.0928125 23.071875 36.0928125 23.071875 36.1875 22.125 C37 20 37 20 39.3125 18.5625 C42 18 42 18 44.3125 19 C46 21 46 21 46.375 24.0625 C46 27 46 27 44 29 C43.01 29 42.02 29 41 29 C40.01 33.95 39.02 38.9 38 44 C42.29 44 46.58 44 51 44 C51.33 42.68 51.66 41.36 52 40 C54.8125 39.375 54.8125 39.375 58 39 C59.485 39.99 59.485 39.99 61 41 C61.375 44.5 61.375 44.5 61 48 C58 50 58 50 54.0625 49.3125 C47.70656632 48.36854945 42.5954552 51.26381294 37 54 C37 53.34 37 52.68 37 52 C35.515 51.505 35.515 51.505 34 51 C34 49.35 34 47.7 34 46 C32.02 46 30.04 46 28 46 C28 47.65 28 49.3 28 51 C26.515 51.495 26.515 51.495 25 52 C25 52.99 25 53.98 25 55 C26.98 55.495 26.98 55.495 29 56 C29 56.66 29 57.32 29 58 C28.34 58 27.68 58 27 58 C27.495 59.98 27.495 59.98 28 62 C30.12364481 62.22609337 30.12364481 62.22609337 31.625 60.5 C32.07875 60.005 32.5325 59.51 33 59 C34.13357275 62.32514673 35.1469752 65.5879008 36 69 C41.61 69 47.22 69 53 69 C53 68.34 53 67.68 53 67 C52.34 66.773125 51.68 66.54625 51 66.3125 C47.07265467 64.59428642 43.58739822 62.33225393 40 60 C40.495 59.01 40.495 59.01 41 58 C44.42346436 59.21477768 47.34866568 60.8091548 50.4375 62.6875 C54.48964539 65.01647393 56.40811725 64.96109174 61 64 C63.4375 65.5625 63.4375 65.5625 65 68 C64.85205998 71.6985004 64.64194427 73.35805573 62 76 C59.0625 76.3125 59.0625 76.3125 56 76 C55.52457764 75.50910889 55.04915527 75.01821777 54.55932617 74.51245117 C52.6179228 72.62940845 51.65215232 72.58842678 48.98828125 72.48828125 C47.85229492 72.43510742 47.85229492 72.43510742 46.69335938 72.38085938 C45.90767578 72.35830078 45.12199219 72.33574219 44.3125 72.3125 C43.51521484 72.27833984 42.71792969 72.24417969 41.89648438 72.20898438 C39.93148096 72.12661896 37.96576304 72.06162933 36 72 C38.47486071 75.22230186 40.95850782 78.00544591 44.0625 80.625 C47.85051426 83.83863206 47.85051426 83.83863206 49.5234375 85.64453125 C51.90572117 87.83144245 54.9297035 88.16264641 58 89 C60 91 60 91 60.3125 93.4375 C60 96 60 96 58.8125 97.8125 C56.35092224 99.42525784 54.88934264 99.4334014 52 99 C51.34487427 98.25496216 51.34487427 98.25496216 50.67651367 97.49487305 C48.33125055 95.40370571 46.77886575 95.65559891 43.67578125 95.70703125 C42.13374023 95.7215332 42.13374023 95.7215332 40.56054688 95.73632812 C39.48869141 95.76146484 38.41683594 95.78660156 37.3125 95.8125 C36.22904297 95.82603516 35.14558594 95.83957031 34.02929688 95.85351562 C31.35236595 95.88889357 28.67643162 95.93825811 26 96 C28.61386782 101.55546608 33.36496271 106.44212688 39.078125 108.890625 C40.70559305 109.31458727 42.35218155 109.66371052 44 110 C44.66 110.66 45.32 111.32 46 112 C45.8125 115 45.8125 115 45 118 C42 120 42 120 39.4375 119.75 C37 119 37 119 35 117 C35 116.01 35 115.02 35 114 C33.2365625 113.814375 33.2365625 113.814375 31.4375 113.625 C27.45879574 113.13564065 23.82233441 112.1944795 20 111 C20.05988141 113.12579013 20.14862744 115.25078413 20.25 117.375 C20.29640625 118.55835937 20.3428125 119.74171875 20.390625 120.9609375 C20.65648799 124.11291753 20.65648799 124.11291753 23.046875 125.4140625 C23.69140625 125.60742188 24.3359375 125.80078125 25 126 C25.125 128.875 25.125 128.875 25 132 C23 134 23 134 20 134.25 C17 134 17 134 15 132 C14.91492188 130.783125 14.82984375 129.56625 14.7421875 128.3125 C14.2108812 123.18040599 11.66231058 120.55387878 8.125 117 C7.58230469 116.41605469 7.03960937 115.83210938 6.48046875 115.23046875 C5.05964956 113.74711962 3.53520345 112.36462528 2 111 C1.01 111 0.02 111 -1 111 C-0.91308261 113.77236494 -0.80622639 116.54147078 -0.6875 119.3125 C-0.65366211 120.49102539 -0.65366211 120.49102539 -0.61914062 121.69335938 C-0.58369141 122.45068359 -0.54824219 123.20800781 -0.51171875 123.98828125 C-0.48553467 124.68477783 -0.45935059 125.38127441 -0.43237305 126.09887695 C0.11434528 128.5027706 1.23519641 129.33688423 3 131 C3.4334014 133.88934264 3.42525784 135.35092224 1.8125 137.8125 C-0.67237266 139.44052002 -2.08711432 139.50975499 -5 139 C-6.875 137.3125 -6.875 137.3125 -8 135 C-7.6875 132.25 -7.6875 132.25 -7 130 C-6.01 129.67 -5.02 129.34 -4 129 C-4 123.06 -4 117.12 -4 111 C-9.06291873 112.01258375 -9.71473142 112.24383868 -12.9375 115.75 C-15.36043959 118.33876816 -17.67616672 120.57100469 -20.5625 122.625 C-21.7690625 123.800625 -21.7690625 123.800625 -23 125 C-22.75337759 128.06314844 -22.75337759 128.06314844 -22 131 C-23.0625 133.375 -23.0625 133.375 -25 135 C-28.17717433 135.46333792 -30.10124887 135.49286352 -32.9375 133.9375 C-34.61676907 130.87530347 -33.68621125 128.30629059 -33 125 C-31.515 124.505 -31.515 124.505 -30 124 C-30 119.71 -30 115.42 -30 111 C-31.32 110.67 -32.64 110.34 -34 110 C-36.45505234 107.81773126 -37.7824717 106.1016112 -38.42578125 102.84375 C-38.68180987 98.45468788 -38.43924832 96.56983565 -35.6875 93 C-33 91 -33 91 -30 90 C-29.67 86.7 -29.34 83.4 -29 80 C-30.11375 79.9071875 -30.11375 79.9071875 -31.25 79.8125 C-35.00642921 78.70264591 -36.0572272 77.38186376 -38 74 C-38.55812806 70.09310355 -38.87614567 67.63801147 -37.01171875 64.15234375 C-35.75 62.5 -35.75 62.5 -33 60 C-31.68 60 -30.36 60 -29 60 C-29 56.7 -29 53.4 -29 50 C-29.7425 49.9175 -30.485 49.835 -31.25 49.75 C-34.54671477 48.85089597 -35.81404792 47.57630066 -38 45 C-39.41000664 42.17998673 -39.24548451 40.12992745 -39 37 C-37.33237678 33.50593231 -36.25993978 32.17329319 -33 30 C-31.68 30 -30.36 30 -29 30 C-29.06018017 27.74926172 -29.14901206 25.49927675 -29.25 23.25 C-29.29640625 21.99703125 -29.3428125 20.7440625 -29.390625 19.453125 C-30.08254044 15.53227084 -31.05785249 14.53094185 -34 12 C-34.5 9.4375 -34.5 9.4375 -34 7 C-32.3125 5.125 -32.3125 5.125 -30 4 C-26.62963689 4.24074022 -25.41201979 4.58798021 -23 7 C-23.09667969 8.0415625 -23.19335938 9.083125 -23.29296875 10.15625 C-22.87318418 15.66382362 -20.18884082 17.81341013 -16.3125 21.5 C-15.68666016 22.14453125 -15.06082031 22.7890625 -14.41601562 23.453125 C-12.67531106 25.15919775 -11.04609749 26.67493035 -9 28 C-6.12139369 28.09438777 -6.12139369 28.09438777 -4 27 C-4.08695958 24.39421134 -4.19381408 21.7918721 -4.3125 19.1875 C-4.34633789 18.08051758 -4.34633789 18.08051758 -4.38085938 16.95117188 C-4.51777922 12.72712056 -4.51777922 12.72712056 -6.51953125 9.14453125 C-7.00808594 8.76683594 -7.49664062 8.38914062 -8 8 C-8.4334014 5.11065736 -8.42525784 3.64907776 -6.8125 1.1875 C-4.35092224 -0.42525784 -2.88934264 -0.4334014 0 0 Z " fill="#EA3B59" transform="translate(50,4)"/>
<path d="M0 0 C40.59 0 81.18 0 123 0 C123 23.43 123 46.86 123 71 C120.69 71 118.38 71 116 71 C116 67.37 116 63.74 116 60 C112.37 60 108.74 60 105 60 C105 63.3 105 66.6 105 70 C104.24074219 69.566875 103.48148437 69.13375 102.69921875 68.6875 C101.70535156 68.130625 100.71148437 67.57375 99.6875 67 C98.70136719 66.443125 97.71523437 65.88625 96.69921875 65.3125 C94.05057529 63.78135247 94.05057529 63.78135247 91 64 C91.86625 64.48210937 92.7325 64.96421875 93.625 65.4609375 C94.73875 66.09257813 95.8525 66.72421875 97 67.375 C98.11375 68.00148438 99.2275 68.62796875 100.375 69.2734375 C101.24125 69.84320313 102.1075 70.41296875 103 71 C103 71.66 103 72.32 103 73 C100.22754986 73.13487595 97.46162912 73.23400807 94.6875 73.3125 C93.90181641 73.35439453 93.11613281 73.39628906 92.30664062 73.43945312 C90.1004013 73.48639439 88.15665222 73.47336955 86 73 C83.64745532 70.20635319 82.66105286 67.56968543 82 64 C81.34 64.99 80.68 65.98 80 67 C78.515 66.505 78.515 66.505 77 66 C77.33 64.02 77.66 62.04 78 60 C76.02 59.505 76.02 59.505 74 59 C74.33 57.68 74.66 56.36 75 55 C75.99 55 76.98 55 78 55 C77.67 54.01 77.34 53.02 77 52 C77.495 51.01 77.495 51.01 78 50 C79.98 50 81.96 50 84 50 C84.103125 50.78375 84.20625 51.5675 84.3125 52.375 C84.77595022 55.33045181 84.77595022 55.33045181 88 57 C90.49416304 56.08135503 90.49416304 56.08135503 93.125 54.5625 C97.95290565 52.18381076 100.98077538 51.60356229 106.22265625 52.703125 C108.09896405 53.19570959 108.09896405 53.19570959 110 52 C110 49.69 110 47.38 110 45 C105.89776415 43.98459888 105.89776415 43.98459888 102 45 C101.67 45.99 101.34 46.98 101 48 C96.71 48 92.42 48 88 48 C88.96428571 37.39285714 88.96428571 37.39285714 91 33 C93.125 31.625 93.125 31.625 95 31 C95 29.02 95 27.04 95 25 C92.67145537 23.80161791 92.67145537 23.80161791 90 23 C86.75150023 24.72226496 86.75150023 24.72226496 86 28 C85.34 28 84.68 28 84 28 C84 28.66 84 29.32 84 30 C84.66 30 85.32 30 86 30 C83.65659294 35.37750251 79.64493089 39.49411267 75 43 C72.10205643 43.60956744 69.99400825 43.30972499 67 43 C65.26973898 44.47890069 65.26973898 44.47890069 64 46 C61.8125 45.6875 61.8125 45.6875 60 45 C59.505 43.02 59.505 43.02 59 41 C58.01 41.66 57.02 42.32 56 43 C55.67 41.35 55.34 39.7 55 38 C56.98 37.505 56.98 37.505 59 37 C59 36.34 59 35.68 59 35 C57.35 35 55.7 35 54 35 C55.37195861 31.90290533 56.93792501 29.84129475 59.375 27.5 C61.34700422 25.60118356 63.23870513 23.73236091 65.0625 21.6875 C67.5125376 19.55359629 69.90620782 18.89376219 73 18 C74.27003323 16.94689723 74.27003323 16.94689723 74.1875 14.5625 C74.26839983 11.83265325 74.26839983 11.83265325 72 10 C68.90073181 10.32198966 68.90073181 10.32198966 66 11 C65.855625 11.7425 65.71125 12.485 65.5625 13.25 C65.2840625 14.61125 65.2840625 14.61125 65 16 C64.90332031 16.63421875 64.80664062 17.2684375 64.70703125 17.921875 C63.76466037 20.69171648 62.24931009 22.00797295 60.125 24 C57.45334288 26.52377942 55.12962956 28.99976716 53 32 C51.68 31.67 50.36 31.34 49 31 C48.9190687 28.39521117 48.85954566 25.79293347 48.8125 23.1875 C48.78736328 22.44951172 48.76222656 21.71152344 48.73632812 20.95117188 C48.66124889 15.42033514 48.66124889 15.42033514 50.4921875 13.1484375 C50.98976562 12.76945313 51.48734375 12.39046875 52 12 C52.41679297 9.45769153 52.41679297 9.45769153 52 7 C50.17296773 4.7508092 50.17296773 4.7508092 47.5 4.75 C44.82703227 4.7508092 44.82703227 4.7508092 43 7 C42.58320703 9.45769153 42.58320703 9.45769153 43 12 C43.49757812 12.37898437 43.99515625 12.75796875 44.5078125 13.1484375 C46.9117587 16.13134457 46.31192627 19.53447242 46.1875 23.1875 C46.16719727 24.31188477 46.16719727 24.31188477 46.14648438 25.45898438 C46.11118539 27.30629767 46.05737917 29.15324066 46 31 C44.35 31.66 42.7 32.32 41 33 C38.47122536 30.67523111 35.98306645 28.31095361 33.5 25.9375 C32.42685547 24.95233398 32.42685547 24.95233398 31.33203125 23.94726562 C26.07702692 18.8674281 26.07702692 18.8674281 25.65625 14.12890625 C25.7696875 13.09636719 25.883125 12.06382813 26 11 C25.34 10.34 24.68 9.68 24 9 C20.17435335 9.18757062 20.17435335 9.18757062 17 11 C17.17567358 14.48055874 17.17567358 14.48055874 18 18 C18.99 18.66 19.98 19.32 21 20 C21.29296875 23.2578125 21.29296875 23.2578125 21.1875 27.125 C21.16042969 28.40632813 21.13335938 29.68765625 21.10546875 31.0078125 C21.07066406 31.99523437 21.03585938 32.98265625 21 34 C19.88625 34.226875 18.7725 34.45375 17.625 34.6875 C13.92752288 35.6100229 13.92752288 35.6100229 12.5625 38.25 C11.56194137 43.14161995 11.23404738 47.67068286 14 52 C17.53514293 53.37967524 17.53514293 53.37967524 21 54 C21 57.3 21 60.6 21 64 C20.236875 64.2475 19.47375 64.495 18.6875 64.75 C15.59025066 66.19058109 14.52488696 66.95022608 13 70 C12.47654407 74.71110333 12.32137531 76.86087999 14.75 80.9375 C17.01303649 83.34096628 17.01303649 83.34096628 21 84 C21 87.3 21 90.6 21 94 C20.505 93.01 20.505 93.01 20 92 C17.03 92 14.06 92 11 92 C11 88.37 11 84.74 11 81 C7.37 81 3.74 81 0 81 C0 54.27 0 27.54 0 0 Z " fill="#F5F6F8" transform="translate(0,0)"/>
<path d="M0 0 C3.63 0 7.26 0 11 0 C11 3.3 11 6.6 11 10 C14.3 10 17.6 10 21 10 C21 13.63 21 17.26 21 21 C24.63 21 28.26 21 32 21 C32 24.3 32 27.6 32 31 C34.31 31 36.62 31 39 31 C39 41.56 39 52.12 39 63 C36.69 63 34.38 63 32 63 C32 59.37 32 55.74 32 52 C28.37 52 24.74 52 21 52 C21 55.3 21 58.6 21 62 C20.24074219 61.566875 19.48148438 61.13375 18.69921875 60.6875 C17.70535156 60.130625 16.71148437 59.57375 15.6875 59 C14.70136719 58.443125 13.71523437 57.88625 12.69921875 57.3125 C10.05057529 55.78135247 10.05057529 55.78135247 7 56 C7.86625 56.48210937 8.7325 56.96421875 9.625 57.4609375 C10.73875 58.09257813 11.8525 58.72421875 13 59.375 C14.11375 60.00148437 15.2275 60.62796875 16.375 61.2734375 C17.24125 61.84320313 18.1075 62.41296875 19 63 C19 63.66 19 64.32 19 65 C16.22754986 65.13487595 13.46162912 65.23400807 10.6875 65.3125 C9.90181641 65.35439453 9.11613281 65.39628906 8.30664062 65.43945312 C6.1004013 65.48639439 4.15665222 65.47336955 2 65 C-0.35254468 62.20635319 -1.33894714 59.56968543 -2 56 C-2.66 56.99 -3.32 57.98 -4 59 C-5.485 58.505 -5.485 58.505 -7 58 C-6.67 56.02 -6.34 54.04 -6 52 C-7.32 51.67 -8.64 51.34 -10 51 C-9.67 49.68 -9.34 48.36 -9 47 C-8.01 47 -7.02 47 -6 47 C-6.33 46.01 -6.66 45.02 -7 44 C-6.67 43.34 -6.34 42.68 -6 42 C-4.02 42 -2.04 42 0 42 C0.103125 42.78375 0.20625 43.5675 0.3125 44.375 C0.77595022 47.33045181 0.77595022 47.33045181 4 49 C6.49416304 48.08135503 6.49416304 48.08135503 9.125 46.5625 C13.95290565 44.18381076 16.98077538 43.60356229 22.22265625 44.703125 C24.09896405 45.19570959 24.09896405 45.19570959 26 44 C26 41.69 26 39.38 26 37 C21.89776415 35.98459888 21.89776415 35.98459888 18 37 C17.67 37.99 17.34 38.98 17 40 C12.71 40 8.42 40 4 40 C4.96428571 29.39285714 4.96428571 29.39285714 7 25 C9.125 23.625 9.125 23.625 11 23 C11 21.02 11 19.04 11 17 C8.67145537 15.80161791 8.67145537 15.80161791 6 15 C2.75150023 16.72226496 2.75150023 16.72226496 2 20 C1.34 20 0.68 20 0 20 C0 20.66 0 21.32 0 22 C0.66 22 1.32 22 2 22 C-0.34340706 27.37750251 -4.35506911 31.49411267 -9 35 C-11.89794357 35.60956744 -14.00599175 35.30972499 -17 35 C-18.73026102 36.47890069 -18.73026102 36.47890069 -20 38 C-22.1875 37.6875 -22.1875 37.6875 -24 37 C-24.33 35.68 -24.66 34.36 -25 33 C-25.99 33.66 -26.98 34.32 -28 35 C-28.33 33.35 -28.66 31.7 -29 30 C-27.68 29.67 -26.36 29.34 -25 29 C-25 28.34 -25 27.68 -25 27 C-26.65 27 -28.3 27 -30 27 C-28.62804139 23.90290533 -27.06207499 21.84129475 -24.625 19.5 C-22.65299578 17.60118356 -20.76129487 15.73236091 -18.9375 13.6875 C-16.47813936 11.54547622 -14.11322934 10.87982568 -11 10 C-10.34 9.67 -9.68 9.34 -9 9 C-5.97507898 9.16926453 -3.00748526 9.61332332 0 10 C0 6.7 0 3.4 0 0 Z " fill="#DDE3EA" transform="translate(84,8)"/>
<path d="M0 0 C3.63 0 7.26 0 11 0 C11 3.63 11 7.26 11 11 C14.3 11 17.6 11 21 11 C21 14.3 21 17.6 21 21 C24.63 21 28.26 21 32 21 C32 24.63 32 28.26 32 32 C28.37 32 24.74 32 21 32 C21 35.3 21 38.6 21 42 C24.63 42 28.26 42 32 42 C32 44.97 32 47.94 32 51 C21.44 51 10.88 51 0 51 C0 48.03 0 45.06 0 42 C3.63 42 7.26 42 11 42 C11 38.7 11 35.4 11 32 C7.37 32 3.74 32 0 32 C0 28.37 0 24.74 0 21 C-3.3 21 -6.6 21 -10 21 C-10 18.69 -10 16.38 -10 14 C-8.20541055 14.22807491 -6.41424551 14.48322303 -4.625 14.75 C-3.62726563 14.88921875 -2.62953125 15.0284375 -1.6015625 15.171875 C1 16 1 16 2.19921875 18.01953125 C2.46347656 18.67308594 2.72773437 19.32664062 3 20 C5.40110217 21.08024658 5.40110217 21.08024658 8 21 C10 20 10 20 11 18 C11.40127511 15.41743146 11.40127511 15.41743146 10 13 C8.00821185 11.97801263 6.0556554 11.31047519 3.91015625 10.67578125 C2 10 2 10 0 8 C-0.26991906 5.31160615 -0.08737357 2.70858064 0 0 Z " fill="#FFFFFF" transform="translate(84,102)"/>
<path d="M0 0 C3.63 0 7.26 0 11 0 C11 3.3 11 6.6 11 10 C14.3 10 17.6 10 21 10 C21 13.63 21 17.26 21 21 C18.03 21 15.06 21 12 21 C11.7525 20.195625 11.505 19.39125 11.25 18.5625 C10.27046728 15.88455527 10.27046728 15.88455527 8.0625 15.0625 C5.68549908 14.79103278 5.68549908 14.79103278 3 17 C2.505 18.485 2.505 18.485 2 20 C1.34 20 0.68 20 0 20 C0 20.66 0 21.32 0 22 C0.66 22 1.32 22 2 22 C-0.34340706 27.37750251 -4.35506911 31.49411267 -9 35 C-11.89794357 35.60956744 -14.00599175 35.30972499 -17 35 C-18.73026102 36.47890069 -18.73026102 36.47890069 -20 38 C-22.1875 37.6875 -22.1875 37.6875 -24 37 C-24.33 35.68 -24.66 34.36 -25 33 C-25.99 33.66 -26.98 34.32 -28 35 C-28.33 33.35 -28.66 31.7 -29 30 C-27.68 29.67 -26.36 29.34 -25 29 C-25 28.34 -25 27.68 -25 27 C-26.65 27 -28.3 27 -30 27 C-28.62804139 23.90290533 -27.06207499 21.84129475 -24.625 19.5 C-22.65299578 17.60118356 -20.76129487 15.73236091 -18.9375 13.6875 C-16.47813936 11.54547622 -14.11322934 10.87982568 -11 10 C-10.34 9.67 -9.68 9.34 -9 9 C-5.97507898 9.16926453 -3.00748526 9.61332332 0 10 C0 6.7 0 3.4 0 0 Z " fill="#DEE2E9" transform="translate(84,8)"/>
<path d="M0 0 C14.08002598 11.49389876 14.08002598 11.49389876 14.875 18.4375 C14.91625 19.613125 14.9575 20.78875 15 22 C16.11836224 23.34404775 16.11836224 23.34404775 19 23.125 C21.88163776 23.34404775 21.88163776 23.34404775 23 22 C23.33340471 19.04195427 23.33340471 19.04195427 23 16 C22.01 15.34 21.02 14.68 20 14 C18.62979857 9.76483193 18.92536352 5.40355236 19 1 C20.32 1.33 21.64 1.66 23 2 C23 4.31 23 6.62 23 9 C26.3 9 29.6 9 33 9 C33 12.63 33 16.26 33 20 C36.63 20 40.26 20 44 20 C44 23.3 44 26.6 44 30 C40.37 30 36.74 30 33 30 C33 32.97 33 35.94 33 39 C29.7 39 26.4 39 23 39 C23 36.03 23 33.06 23 30 C19.37 30 15.74 30 12 30 C12 26.7 12 23.4 12 20 C8.7 20 5.4 20 2 20 C2 16.37 2 12.74 2 9 C0.68 9 -0.64 9 -2 9 C-2 6.36 -2 3.72 -2 1 C-1.34 0.67 -0.68 0.34 0 0 Z " fill="#ECEEF2" transform="translate(51,114)"/>
<path d="M0 0 C0.66 0.99 1.32 1.98 2 3 C4.05925139 3.72382467 4.05925139 3.72382467 6 4 C6 4.66 6 5.32 6 6 C5.34 6 4.68 6 4 6 C4.33 7.32 4.66 8.64 5 10 C7.12364481 10.22609337 7.12364481 10.22609337 8.625 8.5 C9.305625 7.7575 9.305625 7.7575 10 7 C11.13357275 10.32514673 12.1469752 13.5879008 13 17 C18.61 17 24.22 17 30 17 C30 16.34 30 15.68 30 15 C29.34 14.773125 28.68 14.54625 28 14.3125 C24.07265467 12.59428642 20.58739822 10.33225393 17 8 C17.33 7.34 17.66 6.68 18 6 C21.42346436 7.21477768 24.34866568 8.8091548 27.4375 10.6875 C31.48964539 13.01647393 33.40811725 12.96109174 38 12 C40.4375 13.5625 40.4375 13.5625 42 16 C41.85205998 19.6985004 41.64194427 21.35805573 39 24 C36.0625 24.3125 36.0625 24.3125 33 24 C32.52457764 23.50910889 32.04915527 23.01821777 31.55932617 22.51245117 C29.6179228 20.62940845 28.65215232 20.58842678 25.98828125 20.48828125 C25.23095703 20.45283203 24.47363281 20.41738281 23.69335938 20.38085938 C22.90767578 20.35830078 22.12199219 20.33574219 21.3125 20.3125 C20.51521484 20.27833984 19.71792969 20.24417969 18.89648438 20.20898438 C16.93148096 20.12661896 14.96576304 20.06162933 13 20 C15.47486071 23.22230186 17.95850782 26.00544591 21.0625 28.625 C24.85051426 31.83863206 24.85051426 31.83863206 26.5234375 33.64453125 C28.90572117 35.83144245 31.9297035 36.16264641 35 37 C37 39 37 39 37.3125 41.4375 C37 44 37 44 35.8125 45.8125 C33.35092224 47.42525784 31.88934264 47.4334014 29 47 C28.34487427 46.26172974 28.34487427 46.26172974 27.67651367 45.50854492 C25.35823687 43.42253468 23.7608015 43.5735028 20.67578125 43.48828125 C19.64775391 43.45283203 18.61972656 43.41738281 17.56054688 43.38085938 C15.95276367 43.34702148 15.95276367 43.34702148 14.3125 43.3125 C12.68731445 43.26125977 12.68731445 43.26125977 11.02929688 43.20898438 C8.3529678 43.1264544 5.67696841 43.05732063 3 43 C3 42.67 3 42.34 3 42 C10.26 41.67 17.52 41.34 25 41 C25.33 40.01 25.66 39.02 26 38 C24.28001336 36.198683 22.54997709 34.40931537 20.8125 32.625 C20.32974609 32.11710937 19.84699219 31.60921875 19.34960938 31.0859375 C16.43882533 28.11654707 13.99544661 26.21251213 10 25 C9.67 25.33 9.34 25.66 9 26 C7.33382885 26.04063832 5.66611905 26.042721 4 26 C3.34 27.32 2.68 28.64 2 30 C1.34 30 0.68 30 0 30 C0.20625 29.071875 0.4125 28.14375 0.625 27.1875 C1.36692966 23.84826598 1.36692966 23.84826598 -1 21 C-3.93597539 20.61615491 -6.68027373 20.396157 -9.625 20.3125 C-10.42679688 20.27833984 -11.22859375 20.24417969 -12.0546875 20.20898438 C-14.03596318 20.12643122 -16.01796037 20.06154084 -18 20 C-18 19.67 -18 19.34 -18 19 C-14.7 18.67 -11.4 18.34 -8 18 C-8 17.67 -8 17.34 -8 17 C-5.69 17 -3.38 17 -1 17 C-0.5359375 16.071875 -0.5359375 16.071875 -0.0625 15.125 C0.625 13.75 1.3125 12.375 2 11 C1.67 10.34 1.34 9.68 1 9 C0.41992188 9.19335938 -0.16015625 9.38671875 -0.7578125 9.5859375 C-7.37890625 11.79296875 -7.37890625 11.79296875 -14 14 C-14.33 13.01 -14.66 12.02 -15 11 C-13.06532058 10.16013916 -11.12714871 9.32831973 -9.1875 8.5 C-8.10855469 8.0359375 -7.02960938 7.571875 -5.91796875 7.09375 C-3 6 -3 6 0 6 C-0.185625 5.38125 -0.37125 4.7625 -0.5625 4.125 C-1 2 -1 2 0 0 Z " fill="#EA425F" transform="translate(73,56)"/>
<path d="M0 0 C2.31 0 4.62 0 7 0 C7 16.83 7 33.66 7 51 C4.69 51 2.38 51 0 51 C0 48.03 0 45.06 0 42 C-3.63 42 -7.26 42 -11 42 C-11 38.7 -11 35.4 -11 32 C-7.37 32 -3.74 32 0 32 C0 28.37 0 24.74 0 21 C-3.63 21 -7.26 21 -11 21 C-11 17.7 -11 14.4 -11 11 C-7.37 11 -3.74 11 0 11 C0 7.37 0 3.74 0 0 Z " fill="#EDF0F4" transform="translate(116,102)"/>
<path d="M0 0 C10.56 0 21.12 0 32 0 C32 2.64 32 5.28 32 8 C30.75283203 8.07347656 30.75283203 8.07347656 29.48046875 8.1484375 C28.39378906 8.22320312 27.30710937 8.29796875 26.1875 8.375 C25.10855469 8.44460938 24.02960937 8.51421875 22.91796875 8.5859375 C19.81373814 8.81195733 19.81373814 8.81195733 17 11 C16.74984127 14.58357241 16.74984127 14.58357241 17 18 C15.02 18 13.04 18 11 18 C11 21.63 11 25.26 11 29 C7.37 29 3.74 29 0 29 C0 19.43 0 9.86 0 0 Z " fill="#DDE3EA" transform="translate(0,0)"/>
<path d="M0 0 C0.495 1.485 0.495 1.485 1 3 C2.32 3 3.64 3 5 3 C5 6.3 5 9.6 5 13 C1.37 13 -2.26 13 -6 13 C-6 16.3 -6 19.6 -6 23 C-7.13888672 22.3503125 -7.13888672 22.3503125 -8.30078125 21.6875 C-9.29464844 21.130625 -10.28851563 20.57375 -11.3125 20 C-12.29863281 19.443125 -13.28476563 18.88625 -14.30078125 18.3125 C-16.94942471 16.78135247 -16.94942471 16.78135247 -20 17 C-19.13375 17.48210937 -18.2675 17.96421875 -17.375 18.4609375 C-16.26125 19.09257813 -15.1475 19.72421875 -14 20.375 C-12.329375 21.31472656 -12.329375 21.31472656 -10.625 22.2734375 C-9.75875 22.84320313 -8.8925 23.41296875 -8 24 C-8 24.66 -8 25.32 -8 26 C-10.77245014 26.13487595 -13.53837088 26.23400807 -16.3125 26.3125 C-17.09818359 26.35439453 -17.88386719 26.39628906 -18.69335938 26.43945312 C-20.8995987 26.48639439 -22.84334778 26.47336955 -25 26 C-27.35254468 23.20635319 -28.33894714 20.56968543 -29 17 C-29.66 17.99 -30.32 18.98 -31 20 C-31.99 19.67 -32.98 19.34 -34 19 C-33.67 17.02 -33.34 15.04 -33 13 C-34.32 12.67 -35.64 12.34 -37 12 C-36.67 10.68 -36.34 9.36 -36 8 C-35.01 8 -34.02 8 -33 8 C-33.33 7.01 -33.66 6.02 -34 5 C-33.67 4.34 -33.34 3.68 -33 3 C-31.02 3 -29.04 3 -27 3 C-26.896875 3.78375 -26.79375 4.5675 -26.6875 5.375 C-26.22404978 8.33045181 -26.22404978 8.33045181 -23 10 C-20.50583696 9.08135503 -20.50583696 9.08135503 -17.875 7.5625 C-13.04709435 5.18381076 -10.01922462 4.60356229 -4.77734375 5.703125 C-2.90103595 6.19570959 -2.90103595 6.19570959 -1 5 C-0.34444881 2.47266765 -0.34444881 2.47266765 0 0 Z " fill="#E1E2E9" transform="translate(111,47)"/>
<path d="M0 0 C2.25 1.4375 2.25 1.4375 3.0625 3.5625 C3.124375 4.18125 3.18625 4.8 3.25 5.4375 C3.58 4.1175 3.91 2.7975 4.25 1.4375 C6.42578125 0.6328125 6.42578125 0.6328125 9.25 0.4375 C11.85546875 2.4921875 11.85546875 2.4921875 14.4375 5.3125 C17.49470085 8.83432898 17.49470085 8.83432898 21.25 11.4375 C21.25 12.0975 21.25 12.7575 21.25 13.4375 C20.26 13.4375 19.27 13.4375 18.25 13.4375 C18.25 14.0975 18.25 14.7575 18.25 15.4375 C13.96 14.4475 9.67 13.4575 5.25 12.4375 C5.3325 14.54125 5.415 16.645 5.5 18.8125 C5.54640625 19.99585937 5.5928125 21.17921875 5.640625 22.3984375 C5.90648799 25.55041753 5.90648799 25.55041753 8.296875 26.8515625 C8.94140625 27.04492188 9.5859375 27.23828125 10.25 27.4375 C10.375 30.3125 10.375 30.3125 10.25 33.4375 C8.25 35.4375 8.25 35.4375 5.25 35.6875 C2.25 35.4375 2.25 35.4375 0.25 33.4375 C0.12625 31.6121875 0.12625 31.6121875 0 29.75 C-0.41989585 25.30071897 -2.26325861 23.1599458 -5.375 20.078125 C-6.94930831 18.19968895 -7.24582211 16.80473523 -7.75 14.4375 C-8.265625 13.756875 -8.78125 13.07625 -9.3125 12.375 C-10.75 10.4375 -10.75 10.4375 -10.75 7.4375 C-10.09 7.4375 -9.43 7.4375 -8.75 7.4375 C-8.688125 6.674375 -8.62625 5.91125 -8.5625 5.125 C-7.75 2.4375 -7.75 2.4375 -5.5 0.5 C-2.75 -0.5625 -2.75 -0.5625 0 0 Z " fill="#EA3D5B" transform="translate(64.75,102.5625)"/>
<path d="M0 0 C3.63 0 7.26 0 11 0 C11 3.63 11 7.26 11 11 C14.3 11 17.6 11 21 11 C21 14.3 21 17.6 21 21 C17.7 21 14.4 21 11 21 C11 24.63 11 28.26 11 32 C7.37 32 3.74 32 0 32 C0 28.37 0 24.74 0 21 C-3.3 21 -6.6 21 -10 21 C-10 18.69 -10 16.38 -10 14 C-8.20541055 14.22807491 -6.41424551 14.48322303 -4.625 14.75 C-3.62726563 14.88921875 -2.62953125 15.0284375 -1.6015625 15.171875 C1 16 1 16 2.19921875 18.01953125 C2.46347656 18.67308594 2.72773437 19.32664062 3 20 C5.40110217 21.08024658 5.40110217 21.08024658 8 21 C10 20 10 20 11 18 C11.40127511 15.41743146 11.40127511 15.41743146 10 13 C8.00821185 11.97801263 6.0556554 11.31047519 3.91015625 10.67578125 C2 10 2 10 0 8 C-0.26991906 5.31160615 -0.08737357 2.70858064 0 0 Z " fill="#FDFDFD" transform="translate(84,102)"/>
<path d="M0 0 C0.99 0.66 1.98 1.32 3 2 C1.35 5.63 -0.3 9.26 -2 13 C-0.72382812 12.6390625 0.55234375 12.278125 1.8671875 11.90625 C3.53642025 11.4373644 5.20569317 10.9686218 6.875 10.5 C7.71675781 10.26152344 8.55851562 10.02304687 9.42578125 9.77734375 C10.23144531 9.55175781 11.03710938 9.32617188 11.8671875 9.09375 C12.61081543 8.88427734 13.35444336 8.67480469 14.12060547 8.45898438 C16 8 16 8 18 8 C18 8.66 18 9.32 18 10 C18.66 10 19.32 10 20 10 C17.65659294 15.37750251 13.64493089 19.49411267 9 23 C6.10205643 23.60956744 3.99400825 23.30972499 1 23 C-0.73026102 24.47890069 -0.73026102 24.47890069 -2 26 C-4.1875 25.6875 -4.1875 25.6875 -6 25 C-6.33 23.68 -6.66 22.36 -7 21 C-7.99 21.66 -8.98 22.32 -10 23 C-10.33 21.35 -10.66 19.7 -11 18 C-9.68 17.67 -8.36 17.34 -7 17 C-7 16.34 -7 15.68 -7 15 C-8.65 15 -10.3 15 -12 15 C-10.62177144 11.87327251 -9.03754129 9.84197456 -6.5625 7.5 C-4.1192676 5.13311862 -1.92112855 2.82518905 0 0 Z " fill="#EA4965" transform="translate(66,20)"/>
<path d="M0 0 C0.33 0 0.66 0 1 0 C1 3.3 1 6.6 1 10 C0.236875 10.2475 -0.52625 10.495 -1.3125 10.75 C-4.40974934 12.19058109 -5.47511304 12.95022608 -7 16 C-7.52345593 20.71110333 -7.67862469 22.86087999 -5.25 26.9375 C-2.98696351 29.34096628 -2.98696351 29.34096628 1 30 C1 33.3 1 36.6 1 40 C0.67 39.34 0.34 38.68 0 38 C-2.97 38 -5.94 38 -9 38 C-9 34.37 -9 30.74 -9 27 C-12.63 27 -16.26 27 -20 27 C-20 23.7 -20 20.4 -20 17 C-16.37 17 -12.74 17 -9 17 C-9 13.37 -9 9.74 -9 6 C-6.03 6 -3.06 6 0 6 C0 4.02 0 2.04 0 0 Z " fill="#DFDFE6" transform="translate(20,54)"/>
<path d="M0 0 C2.24928251 1.90614721 4.27781693 3.99389817 6.3125 6.125 C7.13717773 6.96998047 7.13717773 6.96998047 7.97851562 7.83203125 C9.32595438 9.21462058 10.66394273 10.60640916 12 12 C11.67 12.66 11.34 13.32 11 14 C3.41 14 -4.18 14 -12 14 C-14.46134818 9.07730363 -13.86636677 6.83538215 -12.3125 1.75 C-8.93854247 -2.74861004 -4.50642076 -2.37730023 0 0 Z " fill="#FDF7F8" transform="translate(88,82)"/>
<path d="M0 0 C3.13487634 2.88682337 3.2842687 3.20202707 3.44921875 7.18359375 C3.40947803 8.91893843 3.33811011 10.65379213 3.23828125 12.38671875 C3.21121094 13.27488281 3.18414062 14.16304687 3.15625 15.078125 C3.08564749 17.2668027 2.98713652 19.45051443 2.86328125 21.63671875 C0.98388672 22.22900391 0.98388672 22.22900391 -1.13671875 22.63671875 C-3.06640625 21.16015625 -3.06640625 21.16015625 -5.01171875 19.01171875 C-8.22238453 15.5846036 -11.47266205 12.56796411 -15.13671875 9.63671875 C-13.21490582 4.91954155 -9.94495712 1.79584591 -5.69921875 -0.92578125 C-3.13671875 -1.36328125 -3.13671875 -1.36328125 0 0 Z " fill="#E4E7ED" transform="translate(42.13671875,44.36328125)"/>
<path d="M0 0 C1.98 0 3.96 0 6 0 C6.12375 0.804375 6.2475 1.60875 6.375 2.4375 C6.58125 3.283125 6.7875 4.12875 7 5 C7.66 5.33 8.32 5.66 9 6 C10 8 10 8 11 10 C11.66 10.33 12.32 10.66 13 11 C13 11.99 13 12.98 13 14 C15.69185195 15.85991989 15.69185195 15.85991989 19 17.5625 C21.02969476 18.65487045 23.03885066 19.78887355 25 21 C25 21.66 25 22.32 25 23 C22.22754986 23.13487595 19.46162912 23.23400807 16.6875 23.3125 C15.90181641 23.35439453 15.11613281 23.39628906 14.30664062 23.43945312 C12.1004013 23.48639439 10.15665222 23.47336955 8 23 C5.64745532 20.20635319 4.66105286 17.56968543 4 14 C3.01 15.485 3.01 15.485 2 17 C1.01 16.67 0.02 16.34 -1 16 C-0.67 14.02 -0.34 12.04 0 10 C-1.32 9.67 -2.64 9.34 -4 9 C-3.67 7.68 -3.34 6.36 -3 5 C-2.01 5 -1.02 5 0 5 C-0.33 4.01 -0.66 3.02 -1 2 C-0.67 1.34 -0.34 0.68 0 0 Z " fill="#EA4561" transform="translate(78,50)"/>
<path d="M0 0 C3.63 0 7.26 0 11 0 C11 3.63 11 7.26 11 11 C13.31 11 15.62 11 18 11 C18 14.3 18 17.6 18 21 C8.76 21 -0.48 21 -10 21 C-10 19.35 -10 17.7 -10 16 C-4.60598179 15.73472042 -4.60598179 15.73472042 -2 16 C-0.375 17.5 -0.375 17.5 1 19 C4.04230823 19.50010524 4.04230823 19.50010524 7 19 C9.29637779 16.24104365 9.29637779 16.24104365 8.75 13.4375 C8.16191948 10.84999433 8.16191948 10.84999433 6 9 C2.91652174 8.83318891 2.91652174 8.83318891 0 9 C0 6.03 0 3.06 0 0 Z " fill="#FEFDFD" transform="translate(105,60)"/>
<path d="M0 0 C0 3.63 0 7.26 0 11 C-3.3 11 -6.6 11 -10 11 C-10 14.3 -10 17.6 -10 21 C-13.63 21 -17.26 21 -21 21 C-21 19.35 -21 17.7 -21 16 C-20.195625 15.773125 -19.39125 15.54625 -18.5625 15.3125 C-15.77795145 14.25485732 -15.77795145 14.25485732 -15.125 11.5625 C-14.83910476 8.87922826 -14.83910476 8.87922826 -16 6 C-10.82572495 0.40978644 -7.58464953 -0.7001215 0 0 Z " fill="#DFE1E8" transform="translate(42,123)"/>
<path d="M0 0 C3.465 1.485 3.465 1.485 7 3 C7.13504138 4.93559313 7.23201129 6.873872 7.3125 8.8125 C7.37050781 9.89144531 7.42851563 10.97039062 7.48828125 12.08203125 C7 15 7 15 4.54296875 16.76171875 C3.70378906 17.17035156 2.86460938 17.57898438 2 18 C1.67 18.66 1.34 19.32 1 20 C-4.35048061 19.62671065 -6.50912907 18.0042343 -10 14 C-8.43632643 10.47761953 -6.30504111 7.72876006 -3.875 4.75 C-3.15054688 3.85796875 -2.42609375 2.9659375 -1.6796875 2.046875 C-0.84824219 1.03367187 -0.84824219 1.03367187 0 0 Z " fill="#F8F5F7" transform="translate(39,84)"/>
<path d="M0 0 C2.77186988 -0.10787818 5.53955537 -0.18723327 8.3125 -0.25 C9.09818359 -0.28351563 9.88386719 -0.31703125 10.69335938 -0.3515625 C16.45275568 -0.44959478 16.45275568 -0.44959478 19.1015625 1.7265625 C20.5226909 5.32263523 19.48986331 7.50685549 18.15625 10.99609375 C17 13 17 13 14.0625 14.6875 C10.63749758 15.03699004 9.84678353 14.77121306 7 13 C4.82421875 10.9765625 4.82421875 10.9765625 2.6875 8.625 C1.96949219 7.85414062 1.25148437 7.08328125 0.51171875 6.2890625 C-1 4 -1 4 -0.59448242 1.85693359 C-0.30021362 0.93775146 -0.30021362 0.93775146 0 0 Z " fill="#FEF7F8" transform="translate(55,76)"/>
<path d="M0 0 C3.77068832 -0.086985 7.54111932 -0.14038579 11.3125 -0.1875 C12.38435547 -0.21263672 13.45621094 -0.23777344 14.56054688 -0.26367188 C15.58857422 -0.27333984 16.61660156 -0.28300781 17.67578125 -0.29296875 C19.0975769 -0.31653442 19.0975769 -0.31653442 20.5480957 -0.34057617 C23.46247413 0.06423891 24.10799457 0.84340703 26 3 C26.99 3.33 27.98 3.66 29 4 C29 7.3 29 10.6 29 14 C25.7 14 22.4 14 19 14 C19 10.37 19 6.74 19 3 C15.37 3 11.74 3 8 3 C8 5.31 8 7.62 8 10 C1.57142857 5.85714286 1.57142857 5.85714286 -1 3 C-0.67 2.01 -0.34 1.02 0 0 Z " fill="#DDE3EA" transform="translate(76,99)"/>
<path d="M0 0 C4.43264816 2.21632408 7.29056058 4.78078216 10.8125 8.1875 C11.42287109 8.73986328 12.03324219 9.29222656 12.66210938 9.86132812 C14.36188722 11.51128159 15.7691475 12.97399996 17 15 C16.88671875 18.92578125 16.88671875 18.92578125 16 22 C13.69 22.66 11.38 23.32 9 24 C6 19.25 6 19.25 6 17 C4.02 16.34 2.04 15.68 0 15 C0 10.05 0 5.1 0 0 Z " fill="#FCEFF1" transform="translate(23,19)"/>
<path d="M0 0 C4.75 0.875 4.75 0.875 7 2 C8.08203125 4.5703125 8.08203125 4.5703125 8 8 C5.93707382 11.01260095 3.35207126 13.39543504 0.6875 15.875 C-0.01568359 16.56335938 -0.71886719 17.25171875 -1.44335938 17.9609375 C-6.6773856 23 -6.6773856 23 -9 23 C-9.34206069 18.61655561 -9.5390042 14.37192292 -9 10 C-6.1875 7.5625 -6.1875 7.5625 -3 6 C-1.11431306 2.89985071 -1.11431306 2.89985071 0 0 Z " fill="#DDE0E7" transform="translate(32,105)"/>
<path d="M0 0 C2.64 0 5.28 0 8 0 C8 3.3 8 6.6 8 10 C11.3 10 14.6 10 18 10 C18 13.63 18 17.26 18 21 C19.32 21 20.64 21 22 21 C22 21.66 22 22.32 22 23 C20.35 23.66 18.7 24.32 17 25 C14.47122536 22.67523111 11.98306645 20.31095361 9.5 17.9375 C8.42685547 16.95233398 8.42685547 16.95233398 7.33203125 15.94726562 C2.07841177 10.8687668 2.07841177 10.8687668 1.65625 6.19140625 C1.7696875 5.13824219 1.883125 4.08507812 2 3 C1.34 2.01 0.68 1.02 0 0 Z " fill="#E3E3E9" transform="translate(24,8)"/>
<path d="M0 0 C2.97 0 5.94 0 9 0 C9 3.3 9 6.6 9 10 C5.7 10 2.4 10 -1 10 C-1 12.64 -1 15.28 -1 18 C-3.31 18 -5.62 18 -8 18 C-7.01176471 8.44705882 -7.01176471 8.44705882 -5 4 C-2.9375 2.75 -2.9375 2.75 -1 2 C-0.67 1.34 -0.34 0.68 0 0 Z " fill="#FEFEFE" transform="translate(96,29)"/>
<path d="M0 0 C-2.21752311 4.97262757 -5.61159362 8.79515681 -10 12 C-12.83323137 12.52840017 -15.0884343 12.24674286 -18 12 C-19.73026102 13.47890069 -19.73026102 13.47890069 -21 15 C-23.1875 14.6875 -23.1875 14.6875 -25 14 C-24.38666868 7.49868801 -24.38666868 7.49868801 -22.71484375 5.3425293 C-20.74152935 3.79764662 -19.31794337 3.34781846 -16.875 2.83203125 C-16.08609375 2.66123047 -15.2971875 2.49042969 -14.484375 2.31445312 C-13.66453125 2.14880859 -12.8446875 1.98316406 -12 1.8125 C-10.77023438 1.54663086 -10.77023438 1.54663086 -9.515625 1.27539062 C-6.25814634 0.58610388 -3.34117642 0 0 0 Z " fill="#F8EFF2" transform="translate(85,31)"/>
<path d="M0 0 C3.3 0 6.6 0 10 0 C10 3.3 10 6.6 10 10 C6.7 10 3.4 10 0 10 C0 13.63 0 17.26 0 21 C-1.32 21 -2.64 21 -4 21 C-4.08097324 18.72975032 -4.13917704 16.45867925 -4.1875 14.1875 C-4.22230469 12.92292969 -4.25710937 11.65835937 -4.29296875 10.35546875 C-4 7 -4 7 -2.55078125 5.30078125 C-2.03902344 4.87152344 -1.52726562 4.44226563 -1 4 C-0.67 2.68 -0.34 1.36 0 0 Z " fill="#FFFFFF" transform="translate(53,8)"/>
<path d="M0 0 C3.3 0 6.6 0 10 0 C10.28875 0.78375 10.5775 1.5675 10.875 2.375 C11.84912254 5.09671632 11.84912254 5.09671632 14 7 C14.1953125 10.2578125 14.1953125 10.2578125 14.125 14.125 C14.10695313 15.40632813 14.08890625 16.68765625 14.0703125 18.0078125 C14.04710937 18.99523437 14.02390625 19.98265625 14 21 C12.68 21 11.36 21 10 21 C10 17.37 10 13.74 10 10 C6.7 10 3.4 10 0 10 C0 6.7 0 3.4 0 0 Z " fill="#FFFFFF" transform="translate(32,8)"/>
<path d="M0 0 C1.32 0.33 2.64 0.66 4 1 C4 3.31 4 5.62 4 8 C7.3 8 10.6 8 14 8 C14 11.63 14 15.26 14 19 C11.03 19 8.06 19 5 19 C4.71125 18.195625 4.4225 17.39125 4.125 16.5625 C3.26737432 13.8673532 3.26737432 13.8673532 1 13 C-0.29930238 8.71230214 -0.07516774 4.43489655 0 0 Z " fill="#E1E4EA" transform="translate(70,115)"/>
<path d="M0 0 C1.8125 1.1875 1.8125 1.1875 3 3 C3.375 5.5 3.375 5.5 3 8 C2.51144531 8.37769531 2.02289063 8.75539063 1.51953125 9.14453125 C-0.89917311 12.09796202 -0.57546868 15.52247532 -0.6875 19.1875 C-0.72166016 19.93708984 -0.75582031 20.68667969 -0.79101562 21.45898438 C-0.87334294 23.30546838 -0.93835281 25.15270994 -1 27 C-1.99 27 -2.98 27 -4 27 C-4.03738281 25.87980469 -4.07476562 24.75960938 -4.11328125 23.60546875 C-4.17894257 22.1327791 -4.24538986 20.66012434 -4.3125 19.1875 C-4.33505859 18.44951172 -4.35761719 17.71152344 -4.38085938 16.95117188 C-4.51777922 12.72712056 -4.51777922 12.72712056 -6.51953125 9.14453125 C-7.25236328 8.57798828 -7.25236328 8.57798828 -8 8 C-8.4334014 5.11065736 -8.42525784 3.64907776 -6.8125 1.1875 C-4.35092224 -0.42525784 -2.88934264 -0.4334014 0 0 Z " fill="#EA4662" transform="translate(50,4)"/>
<path d="M0 0 C2.97 0 5.94 0 9 0 C9 1.65 9 3.3 9 5 C12.3 5 15.6 5 19 5 C19 8.63 19 12.26 19 16 C13.93708127 14.98741625 13.28526858 14.75616132 10.0625 11.25 C7.6431769 8.68836377 5.26594168 6.30898232 2.5 4.125 C1.675 3.42375 0.85 2.7225 0 2 C0 1.34 0 0.68 0 0 Z " fill="#E0E5EC" transform="translate(86,76)"/>
<path d="M0 0 C4.50427033 2.25213516 7.24356685 4.91180073 10.75 8.4375 C11.65298828 9.31631836 11.65298828 9.31631836 12.57421875 10.21289062 C13.14269531 10.78072266 13.71117187 11.34855469 14.296875 11.93359375 C15.07562988 12.7078772 15.07562988 12.7078772 15.87011719 13.49780273 C17 15 17 15 17 18 C11.66950846 18.43692554 11.66950846 18.43692554 9 18 C7.375 15.6875 7.375 15.6875 6 13 C2.93319201 11.17370206 2.93319201 11.17370206 0 10 C0 6.7 0 3.4 0 0 Z " fill="#FEF9FA" transform="translate(23,54)"/>
<path d="M0 0 C4.72172641 1.37776819 8.72562072 3.40898488 12.875 6 C13.46796875 6.35578125 14.0609375 6.7115625 14.671875 7.078125 C16.15294043 7.99269997 17.58212216 8.99023537 19 10 C19 10.66 19 11.32 19 12 C16.22754986 12.13487595 13.46162912 12.23400807 10.6875 12.3125 C9.50897461 12.3753418 9.50897461 12.3753418 8.30664062 12.43945312 C6.1023492 12.48635294 4.15612151 12.46539313 2 12 C-0.0625 9.71875 -0.0625 9.71875 -1 7 C-0.6875 3.1875 -0.6875 3.1875 0 0 Z " fill="#F5F1F4" transform="translate(84,61)"/>
<path d="M0 0 C3.63 0 7.26 0 11 0 C10.67 0.99 10.34 1.98 10 3 C9.236875 2.773125 8.47375 2.54625 7.6875 2.3125 C5.04120269 1.73150966 5.04120269 1.73150966 3.1875 3.0625 C1.72670381 5.02554273 1.72670381 5.02554273 2.1953125 7.83203125 C1.94195446 11.94149871 0.69586955 12.90931074 -2.3125 15.625 C-5.20038392 18.2757147 -7.74990683 20.78142013 -10 24 C-11.32 23.67 -12.64 23.34 -14 23 C-14 22.34 -14 21.68 -14 21 C-12.68 21 -11.36 21 -10 21 C-10 17.37 -10 13.74 -10 10 C-6.7 10 -3.4 10 0 10 C0 6.7 0 3.4 0 0 Z " fill="#DEDFE6" transform="translate(63,8)"/>
<path d="M0 0 C4.9723422 1.49170266 9.41845739 3.60457417 14 6 C14 7.65 14 9.3 14 11 C11.25 12.625 11.25 12.625 8 14 C5.875 13.375 5.875 13.375 4 12 C3.2575 11.649375 2.515 11.29875 1.75 10.9375 C-0.81583634 8.09675262 -0.30591688 5.56463879 -0.140625 1.86328125 C-0.09421875 1.24839844 -0.0478125 0.63351563 0 0 Z " fill="#FDF9FA" transform="translate(48,89)"/>
<path d="M0 0 C0.845625 0.4125 1.69125 0.825 2.5625 1.25 C1.98077275 5.2020518 0.01092259 7.47095053 -2.5 10.5 C-3.23347656 11.39203125 -3.96695312 12.2840625 -4.72265625 13.203125 C-5.28855469 13.87859375 -5.85445312 14.5540625 -6.4375 15.25 C-7.7575 14.92 -9.0775 14.59 -10.4375 14.25 C-10.4375 10.62 -10.4375 6.99 -10.4375 3.25 C-4.28365385 -0.93461538 -4.28365385 -0.93461538 0 0 Z " fill="#FEF9FA" transform="translate(33.4375,80.75)"/>
<path d="M0 0 C3.63 0 7.26 0 11 0 C11 3.63 11 7.26 11 11 C7.37 11 3.74 11 0 11 C0 7.37 0 3.74 0 0 Z " fill="#FFFFFF" transform="translate(105,123)"/>
<path d="M0 0 C3.63 0 7.26 0 11 0 C11 3.63 11 7.26 11 11 C7.37 11 3.74 11 0 11 C0 7.37 0 3.74 0 0 Z " fill="#FFFFFF" transform="translate(0,123)"/>
<path d="M0 0 C3.63 0 7.26 0 11 0 C11 3.63 11 7.26 11 11 C7.37 11 3.74 11 0 11 C0 7.37 0 3.74 0 0 Z " fill="#FFFFFF" transform="translate(0,102)"/>
<path d="M0 0 C3.63 0 7.26 0 11 0 C11 3.63 11 7.26 11 11 C7.37 11 3.74 11 0 11 C0 7.37 0 3.74 0 0 Z " fill="#FFFFFF" transform="translate(0,81)"/>
<path d="M0 0 C3.63 0 7.26 0 11 0 C11 3.63 11 7.26 11 11 C7.37 11 3.74 11 0 11 C0 7.37 0 3.74 0 0 Z " fill="#FFFFFF" transform="translate(0,60)"/>
<path d="M0 0 C3.63 0 7.26 0 11 0 C11 3.63 11 7.26 11 11 C7.37 11 3.74 11 0 11 C0 7.37 0 3.74 0 0 Z " fill="#FFFFFF" transform="translate(105,18)"/>
<path d="M0 0 C3.63 0 7.26 0 11 0 C11 3.63 11 7.26 11 11 C7.37 11 3.74 11 0 11 C0 7.37 0 3.74 0 0 Z " fill="#FFFFFF" transform="translate(0,18)"/>
<path d="M0 0 C0 3.63 0 7.26 0 11 C-3.63 11 -7.26 11 -11 11 C-11 7.7 -11 4.4 -11 1 C-7.57067929 -0.71466036 -3.78283935 -0.05404056 0 0 Z " fill="#FFFFFF" transform="translate(116,102)"/>
<path d="M0 0 C1.77131561 0.30975468 3.54203778 0.62290425 5.3125 0.9375 C6.79169922 1.19853516 6.79169922 1.19853516 8.30078125 1.46484375 C11 2 11 2 14 3 C14 7.62 14 12.24 14 17 C10.60580737 13.71529745 7.38092265 10.29302848 4.1875 6.8125 C3.39730469 5.95269531 2.60710938 5.09289062 1.79296875 4.20703125 C0 2 0 2 0 0 Z " fill="#E4E1E8" transform="translate(54,111)"/>
<path d="M0 0 C6.625 -0.25 6.625 -0.25 10 2 C10.29296875 5.2578125 10.29296875 5.2578125 10.1875 9.125 C10.16042969 10.40632813 10.13335937 11.68765625 10.10546875 13.0078125 C10.07066406 13.99523438 10.03585938 14.98265625 10 16 C9.67 16 9.34 16 9 16 C9 14.35 9 12.7 9 11 C6.03 11 3.06 11 0 11 C0 7.37 0 3.74 0 0 Z " fill="#DED9E1" transform="translate(11,18)"/>
<path d="M0 0 C3.63 0 7.26 0 11 0 C11 3.3 11 6.6 11 10 C7.37 10 3.74 10 0 10 C0 6.7 0 3.4 0 0 Z " fill="#DDE3EA" transform="translate(105,134)"/>
<path d="M0 0 C3.63 0 7.26 0 11 0 C11 3.3 11 6.6 11 10 C7.37 10 3.74 10 0 10 C0 6.7 0 3.4 0 0 Z " fill="#DDE3EA" transform="translate(84,134)"/>
<path d="M0 0 C3.63 0 7.26 0 11 0 C11 3.3 11 6.6 11 10 C7.37 10 3.74 10 0 10 C0 6.7 0 3.4 0 0 Z " fill="#DDE3EA" transform="translate(0,134)"/>
<path d="M0 0 C3.3 0 6.6 0 10 0 C10 3.63 10 7.26 10 11 C6.7 11 3.4 11 0 11 C0 7.37 0 3.74 0 0 Z " fill="#DDE3EA" transform="translate(95,123)"/>
<path d="M0 0 C3.63 0 7.26 0 11 0 C11 3.3 11 6.6 11 10 C7.37 10 3.74 10 0 10 C0 6.7 0 3.4 0 0 Z " fill="#DDE3EA" transform="translate(105,113)"/>
<path d="M0 0 C3.63 0 7.26 0 11 0 C11 3.3 11 6.6 11 10 C7.37 10 3.74 10 0 10 C0 6.7 0 3.4 0 0 Z " fill="#DDE3EA" transform="translate(0,113)"/>
<path d="M0 0 C3.63 0 7.26 0 11 0 C11 3.3 11 6.6 11 10 C7.37 10 3.74 10 0 10 C0 6.7 0 3.4 0 0 Z " fill="#DDE3EA" transform="translate(0,92)"/>
<path d="M0 0 C2.19140625 0.57421875 2.19140625 0.57421875 5.62890625 2.13671875 C5.95890625 3.45671875 6.28890625 4.77671875 6.62890625 6.13671875 C3.86065437 7.30985901 1.08962139 8.4754209 -1.68359375 9.63671875 C-2.46927734 9.97058594 -3.25496094 10.30445312 -4.06445312 10.6484375 C-4.82177734 10.96425781 -5.57910156 11.28007813 -6.359375 11.60546875 C-7.05587158 11.89873047 -7.75236816 12.19199219 -8.4699707 12.49414062 C-10.37109375 13.13671875 -10.37109375 13.13671875 -13.37109375 13.13671875 C-11.0813489 7.90645945 -6.13318701 0.3536434 0 0 Z " fill="#DFD8E1" transform="translate(66.37109375,55.86328125)"/>
<path d="M0 0 C3.63 0 7.26 0 11 0 C11 3.3 11 6.6 11 10 C7.37 10 3.74 10 0 10 C0 6.7 0 3.4 0 0 Z " fill="#DDE3EA" transform="translate(0,50)"/>
<path d="M0 0 C3.63 0 7.26 0 11 0 C11 3.3 11 6.6 11 10 C7.37 10 3.74 10 0 10 C0 6.7 0 3.4 0 0 Z " fill="#DDE3EA" transform="translate(105,29)"/>
<path d="M0 0 C3.63 0 7.26 0 11 0 C11 3.3 11 6.6 11 10 C7.37 10 3.74 10 0 10 C0 6.7 0 3.4 0 0 Z " fill="#DDE3EA" transform="translate(0,29)"/>
<path d="M0 0 C3.63 0 7.26 0 11 0 C11 3.3 11 6.6 11 10 C7.37 10 3.74 10 0 10 C0 6.7 0 3.4 0 0 Z " fill="#DDE3EA" transform="translate(105,8)"/>
<path d="M0 0 C3.63 0 7.26 0 11 0 C11 3.3 11 6.6 11 10 C7.37 10 3.74 10 0 10 C0 6.7 0 3.4 0 0 Z " fill="#DDE3EA" transform="translate(84,8)"/>
<path d="M0 0 C3.79152334 -0.0867982 7.58279296 -0.14032207 11.375 -0.1875 C12.99535156 -0.22520508 12.99535156 -0.22520508 14.6484375 -0.26367188 C15.6796875 -0.27333984 16.7109375 -0.28300781 17.7734375 -0.29296875 C18.72653809 -0.3086792 19.67963867 -0.32438965 20.66162109 -0.34057617 C21.81911865 -0.17199097 21.81911865 -0.17199097 23 0 C23.66 0.99 24.32 1.98 25 3 C19.39 3 13.78 3 8 3 C8 5.31 8 7.62 8 10 C1.57142857 5.85714286 1.57142857 5.85714286 -1 3 C-0.67 2.01 -0.34 1.02 0 0 Z " fill="#E7EBF0" transform="translate(76,99)"/>
<path d="M0 0 C3.3 0 6.6 0 10 0 C10 3.63 10 7.26 10 11 C7.03 11 4.06 11 1 11 C-0.62950412 6.87831311 -1.26264601 4.29299643 0 0 Z " fill="#DDE0E8" transform="translate(95,18)"/>
<path d="M0 0 C0.33 0.99 0.66 1.98 1 3 C-0.390625 5.66796875 -0.390625 5.66796875 -3 8 C-5.94044273 8.61147505 -8.76288814 8.47349691 -11.75 8.3125 C-12.54277344 8.28994141 -13.33554687 8.26738281 -14.15234375 8.24414062 C-16.1023762 8.18540471 -18.05143312 8.09572654 -20 8 C-20 7.34 -20 6.68 -20 6 C-17.23371889 4.80077976 -14.462845 3.61539501 -11.6875 2.4375 C-10.90181641 2.09525391 -10.11613281 1.75300781 -9.30664062 1.40039062 C-8.54931641 1.08134766 -7.79199219 0.76230469 -7.01171875 0.43359375 C-5.96697388 -0.01415405 -5.96697388 -0.01415405 -4.90112305 -0.47094727 C-3 -1 -3 -1 0 0 Z " fill="#FBF4F6" transform="translate(75,65)"/>
<path d="M0 0 C4.34482759 1.34482759 4.34482759 1.34482759 6 3 C6.1875 5.9375 6.1875 5.9375 6 9 C5.34 9.66 4.68 10.32 4 11 C3.01 11 2.02 11 1 11 C0.67 11.66 0.34 12.32 0 13 C-2 12.33333333 -4 11.66666667 -6 11 C-5.34 10.01 -4.68 9.02 -4 8 C-4.66 8 -5.32 8 -6 8 C-6 7.34 -6 6.68 -6 6 C-5.34 6 -4.68 6 -4 6 C-3.896875 5.38125 -3.79375 4.7625 -3.6875 4.125 C-3 2 -3 2 0 0 Z " fill="#EA3856" transform="translate(90,22)"/>
<path d="M0 0 C3.465 1.485 3.465 1.485 7 3 C7 6.96 7 10.92 7 15 C5.68 15.33 4.36 15.66 3 16 C3 13.36 3 10.72 3 8 C-2.1693489 8.40556131 -2.1693489 8.40556131 -7 10 C-5.33248852 6.05860922 -2.77289351 3.2107188 0 0 Z " fill="#DFDDE5" transform="translate(39,84)"/>
<path d="M0 0 C3.3 0 6.6 0 10 0 C10 3.3 10 6.6 10 10 C6.7 10 3.4 10 0 10 C0 6.7 0 3.4 0 0 Z " fill="#FFFFFF" transform="translate(95,8)"/>
<path d="M0 0 C3.63 0 7.26 0 11 0 C11 2.97 11 5.94 11 9 C7.37 9 3.74 9 0 9 C0 6.03 0 3.06 0 0 Z " fill="#FFFFFF" transform="translate(105,144)"/>
<path d="M0 0 C3.63 0 7.26 0 11 0 C11 2.97 11 5.94 11 9 C7.37 9 3.74 9 0 9 C0 6.03 0 3.06 0 0 Z " fill="#FFFFFF" transform="translate(84,144)"/>
<path d="M0 0 C3.63 0 7.26 0 11 0 C11 2.97 11 5.94 11 9 C7.37 9 3.74 9 0 9 C0 6.03 0 3.06 0 0 Z " fill="#FFFFFF" transform="translate(63,144)"/>
<path d="M0 0 C3.63 0 7.26 0 11 0 C11 2.97 11 5.94 11 9 C7.37 9 3.74 9 0 9 C0 6.03 0 3.06 0 0 Z " fill="#FFFFFF" transform="translate(42,144)"/>
<path d="M0 0 C3.63 0 7.26 0 11 0 C11 2.97 11 5.94 11 9 C7.37 9 3.74 9 0 9 C0 6.03 0 3.06 0 0 Z " fill="#FFFFFF" transform="translate(21,144)"/>
<path d="M0 0 C3.63 0 7.26 0 11 0 C11 2.97 11 5.94 11 9 C7.37 9 3.74 9 0 9 C0 6.03 0 3.06 0 0 Z " fill="#FFFFFF" transform="translate(0,144)"/>
<path d="M0 0 C3.69706563 1.31925205 6.03697397 3.80071043 8.75 6.5625 C9.54921875 7.36816406 10.3484375 8.17382812 11.171875 9.00390625 C13 11 13 11 13 12 C2.44191344 11.22095672 2.44191344 11.22095672 -2 9 C-2 6.36 -2 3.72 -2 1 C-1.34 0.67 -0.68 0.34 0 0 Z " fill="#E4DEE5" transform="translate(72,103)"/>
<path d="M0 0 C2.0625 0.4375 2.0625 0.4375 4 1 C4.83984375 4.12890625 4.83984375 4.12890625 5 8 C3.21115582 10.39420601 1.75939556 12.01687667 -0.4375 13.9375 C-0.96666016 14.43056641 -1.49582031 14.92363281 -2.04101562 15.43164062 C-3.34331382 16.64007949 -4.66945513 17.8227339 -6 19 C-6.66 18.67 -7.32 18.34 -8 18 C-6.85718854 15.18623705 -5.71091259 12.37397584 -4.5625 9.5625 C-4.23701172 8.76005859 -3.91152344 7.95761719 -3.57617188 7.13085938 C-3.10727539 5.98520508 -3.10727539 5.98520508 -2.62890625 4.81640625 C-2.34088135 4.10943604 -2.05285645 3.40246582 -1.75610352 2.67407227 C-1 1 -1 1 0 0 Z " fill="#F8ECEF" transform="translate(58,47)"/>
<path d="M0 0 C3.3 0 6.6 0 10 0 C10 3.3 10 6.6 10 10 C3.9453125 10.1953125 3.9453125 10.1953125 2 10 C0 8 0 8 -0.1953125 6.0546875 C-0.13020833 4.03645833 -0.06510417 2.01822917 0 0 Z " fill="#FFFFFF" transform="translate(32,50)"/>
<path d="M0 0 C2.4375 0.75 2.4375 0.75 4.4375 2.75 C4.80237512 5.59602594 4.83949375 7.1364306 3.25 9.5625 C0.76512734 11.19052002 -0.64961432 11.25975499 -3.5625 10.75 C-5.4375 9.0625 -5.4375 9.0625 -6.5625 6.75 C-6.4375 4.125 -6.4375 4.125 -5.5625 1.75 C-2.5625 -0.25 -2.5625 -0.25 0 0 Z " fill="#E93A58" transform="translate(48.5625,132.25)"/>
<path d="M0 0 C0.33 0.99 0.66 1.98 1 3 C2.32 3 3.64 3 5 3 C5 6.3 5 9.6 5 13 C1.37 13 -2.26 13 -6 13 C-6 11.02 -6 9.04 -6 7 C-4.7934375 6.6596875 -4.7934375 6.6596875 -3.5625 6.3125 C-2.716875 5.879375 -1.87125 5.44625 -1 5 C-0.10613836 2.45224694 -0.10613836 2.45224694 0 0 Z " fill="#DDE1E8" transform="translate(111,47)"/>
<path d="M0 0 C-0.33 3.63 -0.66 7.26 -1 11 C-4.3 11 -7.6 11 -11 11 C-10 3.66666667 -10 3.66666667 -8 1 C-2.66666667 -1.33333333 -2.66666667 -1.33333333 0 0 Z " fill="#DDE0E7" transform="translate(85,81)"/>
<path d="M0 0 C0.66 0.33 1.32 0.66 2 1 C0.68 5.62 -0.64 10.24 -2 15 C-4.64 15 -7.28 15 -10 15 C-10.83984375 13.359375 -10.83984375 13.359375 -11 11 C-9.24163592 8.8697315 -7.57575206 7.1050158 -5.5625 5.25 C-5.03333984 4.74339844 -4.50417969 4.23679687 -3.95898438 3.71484375 C-2.65022899 2.46504131 -1.32648041 1.23097382 0 0 Z " fill="#DFD9E1" transform="translate(87,33)"/>
<path d="M0 0 C3.3 0 6.6 0 10 0 C10 2.97 10 5.94 10 9 C6.7 9 3.4 9 0 9 C0 6.03 0 3.06 0 0 Z " fill="#DDE3EA" transform="translate(95,144)"/>
<path d="M0 0 C3.3 0 6.6 0 10 0 C10 2.97 10 5.94 10 9 C6.7 9 3.4 9 0 9 C0 6.03 0 3.06 0 0 Z " fill="#DDE3EA" transform="translate(74,144)"/>
<path d="M0 0 C3.3 0 6.6 0 10 0 C10 2.97 10 5.94 10 9 C6.7 9 3.4 9 0 9 C0 6.03 0 3.06 0 0 Z " fill="#DDE3EA" transform="translate(53,144)"/>
<path d="M0 0 C3.3 0 6.6 0 10 0 C10 2.97 10 5.94 10 9 C6.7 9 3.4 9 0 9 C0 6.03 0 3.06 0 0 Z " fill="#DDE3EA" transform="translate(32,144)"/>
<path d="M0 0 C3.3 0 6.6 0 10 0 C10 2.97 10 5.94 10 9 C6.7 9 3.4 9 0 9 C0 6.03 0 3.06 0 0 Z " fill="#DDE3EA" transform="translate(11,144)"/>
<path d="M0 0 C-2.27435204 7.18216433 -5.03584181 14.0758202 -8 21 C-8.33 21 -8.66 21 -9 21 C-9 15.06 -9 9.12 -9 3 C-3 0 -3 0 0 0 Z " fill="#E8D3DC" transform="translate(56,45)"/>
<path d="M0 0 C3.63 0 7.26 0 11 0 C11 2.64 11 5.28 11 8 C7.37 8 3.74 8 0 8 C0 5.36 0 2.72 0 0 Z " fill="#FFFFFF" transform="translate(84,0)"/>
<path d="M0 0 C3.63 0 7.26 0 11 0 C11 2.64 11 5.28 11 8 C7.37 8 3.74 8 0 8 C0 5.36 0 2.72 0 0 Z " fill="#FFFFFF" transform="translate(63,0)"/>
<path d="M0 0 C3.63 0 7.26 0 11 0 C11 2.64 11 5.28 11 8 C7.37 8 3.74 8 0 8 C0 5.36 0 2.72 0 0 Z " fill="#FFFFFF" transform="translate(21,0)"/>
<path d="M0 0 C3.63 0 7.26 0 11 0 C11 2.64 11 5.28 11 8 C7.37 8 3.74 8 0 8 C0 5.36 0 2.72 0 0 Z " fill="#FFFFFF" transform="translate(0,0)"/>
<path d="M0 0 C1.32 1.32 2.64 2.64 4 4 C3.67 4.99 3.34 5.98 3 7 C-0.3 7 -3.6 7 -7 7 C-7 9.64 -7 12.28 -7 15 C-8.65 13.68 -10.3 12.36 -12 11 C-10.0538131 6.22299579 -6.8555998 2.86594658 -2.1875 0.6875 C-1.1046875 0.3471875 -1.1046875 0.3471875 0 0 Z " fill="#DFDFE6" transform="translate(39,43)"/>
<path d="M0 0 C2.97 0 5.94 0 9 0 C9 3.3 9 6.6 9 10 C11.31 10 13.62 10 16 10 C16 10.66 16 11.32 16 12 C13.69 12.66 11.38 13.32 9 14 C6 9.25 6 9.25 6 7 C4.02 6.34 2.04 5.68 0 5 C0 3.35 0 1.7 0 0 Z " fill="#DEDEE6" transform="translate(23,29)"/>
<path d="M0 0 C1.32 0 2.64 0 4 0 C4 3.3 4 6.6 4 10 C0.37 10 -3.26 10 -7 10 C-7 8.35 -7 6.7 -7 5 C-6.21625 4.731875 -5.4325 4.46375 -4.625 4.1875 C-1.71885077 3.15185568 -1.71885077 3.15185568 0 0 Z " fill="#DDE1E8" transform="translate(28,134)"/>
<path d="M0 0 C0.33 0 0.66 0 1 0 C1.66 1.98 2.32 3.96 3 6 C5.31 6 7.62 6 10 6 C10 8.31 10 10.62 10 13 C6.37 13 2.74 13 -1 13 C-1.125 3.375 -1.125 3.375 0 0 Z " fill="#DDDFE6" transform="translate(64,131)"/>
<path d="M0 0 C3.3 0 6.6 0 10 0 C9.625 2.4375 9.625 2.4375 9 5 C8.01 5.495 8.01 5.495 7 6 C6.67 6.99 6.34 7.98 6 9 C1.71 9 -2.58 9 -7 9 C-7 8.67 -7 8.34 -7 8 C-4.69 8 -2.38 8 0 8 C0 5.36 0 2.72 0 0 Z " fill="#DFDDE4" transform="translate(95,39)"/>
<path d="M0 0 C0 4.95 0 9.9 0 15 C-2.31 15 -4.62 15 -7 15 C-6.49311454 10.1001072 -6.0003877 5.55643866 -4 1 C-1 0 -1 0 0 0 Z " fill="#FEF7F9" transform="translate(95,32)"/>
<path d="M0 0 C3.3 0 6.6 0 10 0 C10 2.64 10 5.28 10 8 C6.7169902 9.6415049 3.57454967 8.51888624 0 8 C0 5.36 0 2.72 0 0 Z " fill="#DDE2E9" transform="translate(11,0)"/>
<path d="M0 0 C1.65 0 3.3 0 5 0 C5.33 1.32 5.66 2.64 6 4 C7.32 4.33 8.64 4.66 10 5 C10 6.65 10 8.3 10 10 C6.7 10 3.4 10 0 10 C0 6.7 0 3.4 0 0 Z " fill="#FEFDFD" transform="translate(11,134)"/>
<path d="M0 0 C3.63 0 7.26 0 11 0 C11 3.63 11 7.26 11 11 C9.68 11 8.36 11 7 11 C6.6596875 9.824375 6.6596875 9.824375 6.3125 8.625 C5.21875 5.78125 5.21875 5.78125 2.375 4.6875 C1.59125 4.460625 0.8075 4.23375 0 4 C0 2.68 0 1.36 0 0 Z " fill="#FEFEFE" transform="translate(105,39)"/>
<path d="M0 0 C3.3 0 6.6 0 10 0 C10 2.64 10 5.28 10 8 C6.7 8 3.4 8 0 8 C0 5.36 0 2.72 0 0 Z " fill="#DDE3EA" transform="translate(95,0)"/>
<path d="M0 0 C3.3 0 6.6 0 10 0 C10 2.64 10 5.28 10 8 C6.7 8 3.4 8 0 8 C0 5.36 0 2.72 0 0 Z " fill="#DDE3EA" transform="translate(74,0)"/>
<path d="M0 0 C3.3 0 6.6 0 10 0 C10 2.64 10 5.28 10 8 C6.7 8 3.4 8 0 8 C0 5.36 0 2.72 0 0 Z " fill="#DDE3EA" transform="translate(53,0)"/>
<path d="M0 0 C2.97 0 5.94 0 9 0 C9.1875 2.3125 9.1875 2.3125 9 5 C7.5625 6.625 7.5625 6.625 6 8 C5.67 8.99 5.34 9.98 5 11 C3.35 11 1.7 11 0 11 C0 7.37 0 3.74 0 0 Z " fill="#DDE1E9" transform="translate(11,123)"/>
<path d="M0 0 C2.31 0 4.62 0 7 0 C7 3.63 7 7.26 7 11 C4.69 11 2.38 11 0 11 C0 7.37 0 3.74 0 0 Z " fill="#DDE3EA" transform="translate(116,123)"/>
<path d="M0 0 C6.6 0 13.2 0 20 0 C20 1.32 20 2.64 20 4 C13.73 4 7.46 4 1 4 C0.67 2.68 0.34 1.36 0 0 Z " fill="#DDE3EA" transform="translate(75,92)"/>
<path d="M0 0 C2.31 0 4.62 0 7 0 C7 3.63 7 7.26 7 11 C4.69 11 2.38 11 0 11 C0 7.37 0 3.74 0 0 Z " fill="#DDE3EA" transform="translate(116,81)"/>
<path d="M0 0 C2.31 0 4.62 0 7 0 C7 3.63 7 7.26 7 11 C4.69 11 2.38 11 0 11 C0 7.37 0 3.74 0 0 Z " fill="#DDE3EA" transform="translate(116,60)"/>
<path d="M0 0 C0.721875 0.391875 1.44375 0.78375 2.1875 1.1875 C2.1875 3.4975 2.1875 5.8075 2.1875 8.1875 C-5.4375 7.3125 -5.4375 7.3125 -8.8125 6.1875 C-8.49861748 3.15330233 -7.95449636 2.3058303 -5.5625 0.3125 C-2.8125 -0.8125 -2.8125 -0.8125 0 0 Z " fill="#DDD6DF" transform="translate(64.8125,102.8125)"/>
<path d="M0 0 C2.31 0 4.62 0 7 0 C7 3.3 7 6.6 7 10 C4.69 10 2.38 10 0 10 C0 6.7 0 3.4 0 0 Z " fill="#FFFFFF" transform="translate(116,113)"/>
<path d="M0 0 C2.31 0 4.62 0 7 0 C7 3.3 7 6.6 7 10 C4.69 10 2.38 10 0 10 C0 6.7 0 3.4 0 0 Z " fill="#FFFFFF" transform="translate(116,92)"/>
<path d="M0 0 C2.31 0 4.62 0 7 0 C7 3.3 7 6.6 7 10 C4.69 10 2.38 10 0 10 C0 6.7 0 3.4 0 0 Z " fill="#FFFFFF" transform="translate(116,71)"/>
<path d="M0 0 C1 1 1 1 1.0625 4.0625 C1.041875 5.031875 1.02125 6.00125 1 7 C-2.3 7 -5.6 7 -9 7 C-9 5.02 -9 3.04 -9 1 C-5.65903378 -1.10357132 -3.7625171 -1.11858616 0 0 Z " fill="#FEFAFB" transform="translate(104,53)"/>
<path d="M0 0 C2.31 0 4.62 0 7 0 C7 3.3 7 6.6 7 10 C4.69 10 2.38 10 0 10 C0 6.7 0 3.4 0 0 Z " fill="#FFFFFF" transform="translate(116,50)"/>
<path d="M0 0 C2.31 0 4.62 0 7 0 C7 3.3 7 6.6 7 10 C4.69 10 2.38 10 0 10 C0 6.7 0 3.4 0 0 Z " fill="#FFFFFF" transform="translate(116,29)"/>
<path d="M0 0 C2.31 0 4.62 0 7 0 C7 3.3 7 6.6 7 10 C4.69 10 2.38 10 0 10 C0 6.7 0 3.4 0 0 Z " fill="#FFFFFF" transform="translate(116,8)"/>
<path d="M0 0 C2.97 0 5.94 0 9 0 C9 3.3 9 6.6 9 10 C6.36 10 3.72 10 1 10 C1.20625 8.906875 1.4125 7.81375 1.625 6.6875 C2.40346525 2.9161599 2.40346525 2.9161599 0 0 Z " fill="#DDE1E8" transform="translate(107,92)"/>
<path d="M0 0 C0.33 0 0.66 0 1 0 C1 3.3 1 6.6 1 10 C0.278125 10.226875 -0.44375 10.45375 -1.1875 10.6875 C-4.53209313 12.24831013 -6.51603959 14.3031287 -9 17 C-9 13.37 -9 9.74 -9 6 C-6.03 6 -3.06 6 0 6 C0 4.02 0 2.04 0 0 Z " fill="#DFD4DD" transform="translate(20,54)"/>
<path d="M0 0 C0 1.65 0 3.3 0 5 C-3.63 5 -7.26 5 -11 5 C-10.67 7.31 -10.34 9.62 -10 12 C-11.32 11.67 -12.64 11.34 -14 11 C-13.39906651 4.63010502 -13.39906651 4.63010502 -11.8125 2.125 C-8.15763949 -0.14353411 -4.19547926 0 0 0 Z " fill="#DDDEE5" transform="translate(74,34)"/>
<path d="M0 0 C3.63 0 7.26 0 11 0 C11 1.65 11 3.3 11 5 C9.88625 5.0825 8.7725 5.165 7.625 5.25 C3.94246056 5.57873787 3.94246056 5.57873787 2.5625 8.0625 C2.2840625 9.0215625 2.2840625 9.0215625 2 10 C1.34 10 0.68 10 0 10 C0 6.7 0 3.4 0 0 Z " fill="#FEFAFB" transform="translate(84,18)"/>
<path d="M0 0 C2.97 0 5.94 0 9 0 C9 0.99 9 1.98 9 3 C8.21625 3.268125 7.4325 3.53625 6.625 3.8125 C3.71885077 4.84814432 3.71885077 4.84814432 2 8 C1.68399811 10.14790929 1.68399811 10.14790929 1.75 12.4375 C1.74484375 13.19933594 1.7396875 13.96117188 1.734375 14.74609375 C2.0252708 17.21443018 2.77024344 18.857686 4 21 C2.68 21 1.36 21 0 21 C0 14.07 0 7.14 0 0 Z " fill="#FEF7F9" transform="translate(11,92)"/>
<path d="M0 0 C4.75 0.875 4.75 0.875 7 2 C7.625 5.0625 7.625 5.0625 8 8 C4.04 8 0.08 8 -4 8 C-2.68 5.36 -1.36 2.72 0 0 Z " fill="#E2E2E9" transform="translate(32,105)"/>
<path d="M0 0 C2.31 0 4.62 0 7 0 C7 2.97 7 5.94 7 9 C4.69 9 2.38 9 0 9 C0 6.03 0 3.06 0 0 Z " fill="#DDE3EA" transform="translate(116,144)"/>
<path d="M0 0 C4.17989715 1.04497429 5.47378145 1.6317086 8 5 C7.75 7.75 7.75 7.75 7 10 C4.69 10 2.38 10 0 10 C0 6.7 0 3.4 0 0 Z " fill="#FEF7F8" transform="translate(32,29)"/>
<path d="M0 0 C0 3.3 0 6.6 0 10 C-2.64 10 -5.28 10 -8 10 C-7.57742724 8.5164999 -7.13643678 7.03823576 -6.6875 5.5625 C-6.32205078 4.32693359 -6.32205078 4.32693359 -5.94921875 3.06640625 C-5.63597656 2.38449219 -5.32273437 1.70257812 -5 1 C-2 0 -2 0 0 0 Z " fill="#FEFBFB" transform="translate(74,19)"/>
<path d="M0 0 C2.64 0 5.28 0 8 0 C8 3.3 8 6.6 8 10 C6.35 10.33 4.7 10.66 3 11 C2 9 2 9 2.0625 6.0625 C2.27092595 2.82398066 2.27092595 2.82398066 0 0 Z " fill="#DEDCE4" transform="translate(24,8)"/>
<path d="M0 0 C2.64 0 5.28 0 8 0 C7.01 1.485 7.01 1.485 6 3 C5.92094936 5.33199388 5.91201231 7.66832622 6 10 C4.02 10 2.04 10 0 10 C0 6.7 0 3.4 0 0 Z " fill="#FEFDFD" transform="translate(11,8)"/>
<path d="M0 0 C2.31 0 4.62 0 7 0 C7 2.64 7 5.28 7 8 C4.69 8 2.38 8 0 8 C0 5.36 0 2.72 0 0 Z " fill="#DDE3EA" transform="translate(116,0)"/>
<path d="M0 0 C3.63 0 7.26 0 11 0 C11 2.31 11 4.62 11 7 C10.01 6.34 9.02 5.68 8 5 C4.24301443 4.62430144 3.24633524 4.8357765 0 7 C0 4.69 0 2.38 0 0 Z " fill="#FEFEFE" transform="translate(42,0)"/>
<path d="M0 0 C3.50078487 1.27969867 5.68853584 3.47815371 8.25 6.125 C8.95640625 6.84945312 9.6628125 7.57390625 10.390625 8.3203125 C11.18726563 9.15175781 11.18726563 9.15175781 12 10 C11.01 10.495 11.01 10.495 10 11 C7.1796875 9.78515625 7.1796875 9.78515625 3.875 8.0625 C2.77929688 7.49660156 1.68359375 6.93070312 0.5546875 6.34765625 C-0.28835937 5.90292969 -1.13140625 5.45820312 -2 5 C-2 3.68 -2 2.36 -2 1 C-1.34 0.67 -0.68 0.34 0 0 Z " fill="#DDD9E1" transform="translate(50,81)"/>
<path d="M0 0 C3.03336186 -0.22893297 5.97465051 -0.36475845 9 0 C11.0625 2 11.0625 2 12 4 C11.67 4.66 11.34 5.32 11 6 C7.37 5.67 3.74 5.34 0 5 C0 3.35 0 1.7 0 0 Z " fill="#DDE0E7" transform="translate(63,76)"/>
<path d="M0 0 C1.15518918 0.90484792 2.29885406 1.8244206 3.4375 2.75 C4.07558594 3.26046875 4.71367188 3.7709375 5.37109375 4.296875 C7.18810554 6.19667629 7.60423197 7.43586908 8 10 C5.36 10 2.72 10 0 10 C-1.6415049 6.7169902 -0.51888624 3.57454967 0 0 Z " fill="#E2E3EA" transform="translate(32,62)"/>
<path d="M0 0 C4.455 0.99 4.455 0.99 9 2 C9 4.97 9 7.94 9 11 C2.21917808 5.57534247 2.21917808 5.57534247 0 2 C0 1.34 0 0.68 0 0 Z " fill="#F8F2F5" transform="translate(54,111)"/>
<path d="M0 0 C1 2 1 2 0.25 4.56640625 C-0.99941925 7.56110802 -2.21135925 10.28888835 -4 13 C-7.8125 14.1875 -7.8125 14.1875 -11 14 C-9.61263874 10.84375314 -7.99607292 8.80136567 -5.5 6.4375 C-3.27903267 4.32475777 -1.72257583 2.58386374 0 0 Z " fill="#FEF7F8" transform="translate(65,21)"/>
<path d="M0 0 C6.0546875 -0.1953125 6.0546875 -0.1953125 8 0 C10 2 10 2 10 5 C6.7 5 3.4 5 0 5 C0 3.35 0 1.7 0 0 Z " fill="#FEFDFD" transform="translate(95,76)"/>
<path d="M0 0 C0.33 0 0.66 0 1 0 C1 2.64 1 5.28 1 8 C0.34 8 -0.32 8 -1 8 C-1 8.66 -1 9.32 -1 10 C-2.77226453 9.71715982 -4.542788 9.42339502 -6.3125 9.125 C-7.29863281 8.96257812 -8.28476562 8.80015625 -9.30078125 8.6328125 C-12 8 -12 8 -15 6 C-10.15507803 4.48596188 -6.7408989 5.63397828 -2 7 C-1.22227595 4.66682784 -0.57584432 2.38564077 0 0 Z " fill="#E84360" transform="translate(69,104)"/>
<path d="M0 0 C0.33 0.99 0.66 1.98 1 3 C3.97 3 6.94 3 10 3 C10 3.66 10 4.32 10 5 C4.39 5 -1.22 5 -7 5 C-7 4.34 -7 3.68 -7 3 C-4.69 2.01 -2.38 1.02 0 0 Z " fill="#E9E3E9" transform="translate(62,68)"/>
<path d="M0 0 C2.64 0.33 5.28 0.66 8 1 C8 2.32 8 3.64 8 5 C8.66 5.33 9.32 5.66 10 6 C9.01 6.99 8.02 7.98 7 9 C6.5875 8.566875 6.175 8.13375 5.75 7.6875 C4.01594622 5.92228822 4.01594622 5.92228822 1.8125 4.5 C1.214375 4.005 0.61625 3.51 0 3 C0 2.01 0 1.02 0 0 Z " fill="#EC4864" transform="translate(40,81)"/>
<path d="M0 0 C2.64 0 5.28 0 8 0 C8 1.65 8 3.3 8 5 C5.36 5 2.72 5 0 5 C-0.33 4.01 -0.66 3.02 -1 2 C-0.67 1.34 -0.34 0.68 0 0 Z " fill="#FEFDFD" transform="translate(55,76)"/>
<path d="M0 0 C3.63 0 7.26 0 11 0 C10.67 1.32 10.34 2.64 10 4 C8.63875 3.938125 8.63875 3.938125 7.25 3.875 C4.1217954 3.99531556 2.61385994 4.3914708 0 6 C0 4.02 0 2.04 0 0 Z " fill="#FEFEFE" transform="translate(63,39)"/>
<path d="M0 0 C2.97 0 5.94 0 9 0 C9 1.65 9 3.3 9 5 C6.75 5.75 6.75 5.75 4 6 C1.6875 4.1875 1.6875 4.1875 0 2 C0 1.34 0 0.68 0 0 Z " fill="#DED9E2" transform="translate(86,76)"/>
<path d="M0 0 C5.06998019 0.65419099 9.41990777 2.8546409 14 5 C13.01 5.99 12.02 6.98 11 8 C7.04 6.02 3.08 4.04 -1 2 C-0.67 1.34 -0.34 0.68 0 0 Z " fill="#EB506B" transform="translate(49,87)"/>
<path d="M0 0 C0 3.3 0 6.6 0 10 C-1.32 9.67 -2.64 9.34 -4 9 C-4 6.36 -4 3.72 -4 1 C-2 0 -2 0 0 0 Z " fill="#FDF4F5" transform="translate(74,103)"/>
<path d="M0 0 C1.65 0 3.3 0 5 0 C5 2.97 5 5.94 5 9 C2.5 7.875 2.5 7.875 0 6 C-0.3125 2.8125 -0.3125 2.8125 0 0 Z " fill="#DDD9E1" transform="translate(48,92)"/>
<path d="M0 0 C0.33 0 0.66 0 1 0 C1 2.64 1 5.28 1 8 C-1.64 8 -4.28 8 -7 8 C-6.02133662 6.85373678 -5.04205413 5.70800212 -4.0625 4.5625 C-3.51722656 3.92441406 -2.97195312 3.28632812 -2.41015625 2.62890625 C-1.63204305 1.73008851 -0.84063472 0.84063472 0 0 Z " fill="#FEFDFD" transform="translate(41,115)"/>
<path d="M0 0 C3.63 0 7.26 0 11 0 C8.32522069 2.67477931 5.507025 3.6464114 2 5 C1.01 5 0.02 5 -1 5 C-0.67 3.35 -0.34 1.7 0 0 Z " fill="#E1CBD5" transform="translate(87,50)"/>
<path d="M0 0 C4.95 0.33 9.9 0.66 15 1 C15 1.66 15 2.32 15 3 C14.01 3 13.02 3 12 3 C12 3.66 12 4.32 12 5 C7.71 4.01 3.42 3.02 -1 2 C-0.67 1.34 -0.34 0.68 0 0 Z " fill="#EB526D" transform="translate(71,113)"/>
<path d="M0 0 C2.31 0 4.62 0 7 0 C8.125 3.75 8.125 3.75 7 6 C4.0625 5.25 4.0625 5.25 1 4 C0.125 1.875 0.125 1.875 0 0 Z " fill="#FDF5F6" transform="translate(32,75)"/>
<path d="M0 0 C1.32 0.33 2.64 0.66 4 1 C4 3.64 4 6.28 4 9 C2.68 9 1.36 9 0 9 C0 6.03 0 3.06 0 0 Z " fill="#DDE0E7" transform="translate(42,114)"/>
<path d="M0 0 C0.33 0 0.66 0 1 0 C1 3.96 1 7.92 1 12 C-0.32 12.33 -1.64 12.66 -3 13 C-3 10.36 -3 7.72 -3 5 C-2.01 5 -1.02 5 0 5 C0 3.35 0 1.7 0 0 Z " fill="#E1CCD6" transform="translate(45,87)"/>
<path d="M0 0 C4.10958767 1.45044271 7.43258745 3.51110752 11 6 C10.67 6.99 10.34 7.98 10 9 C6.37 6.69 2.74 4.38 -1 2 C-0.67 1.34 -0.34 0.68 0 0 Z " fill="#EA4864" transform="translate(91,62)"/>
<path d="M0 0 C3.3 0 6.6 0 10 0 C10 0.66 10 1.32 10 2 C5.05 3.485 5.05 3.485 0 5 C0 3.35 0 1.7 0 0 Z " fill="#FDF3F5" transform="translate(63,60)"/>
<path d="M0 0 C2.64 0 5.28 0 8 0 C8 2.31 8 4.62 8 7 C2.25 3.375 2.25 3.375 0 0 Z " fill="#DDD7E0" transform="translate(76,102)"/>
<path d="M0 0 C2.97 0 5.94 0 9 0 C9 1.32 9 2.64 9 4 C6.36 4 3.72 4 1 4 C0.67 2.68 0.34 1.36 0 0 Z " fill="#FEFBFC" transform="translate(75,92)"/>
<path d="M0 0 C1.98 0.99 1.98 0.99 4 2 C4 4.31 4 6.62 4 9 C2.68 9 1.36 9 0 9 C0 6.03 0 3.06 0 0 Z " fill="#FEF6F8" transform="translate(63,102)"/>
<path d="M0 0 C1.32 0.33 2.64 0.66 4 1 C4 3.31 4 5.62 4 8 C2.68 8 1.36 8 0 8 C0 5.36 0 2.72 0 0 Z " fill="#DECED8" transform="translate(70,115)"/>
<path d="M0 0 C2.31 0 4.62 0 7 0 C7 2.64 7 5.28 7 8 C4.35247996 5.42215154 2.05567935 3.08351902 0 0 Z " fill="#DDDBE3" transform="translate(56,81)"/>
<path d="M0 0 C0 1.65 0 3.3 0 5 C-2.8125 5.6875 -2.8125 5.6875 -6 6 C-7.875 4.5625 -7.875 4.5625 -9 3 C-2.25 0 -2.25 0 0 0 Z " fill="#DED9E1" transform="translate(95,55)"/>
<path d="M0 0 C0.66 0 1.32 0 2 0 C2 3.3 2 6.6 2 10 C-1.63 10 -5.26 10 -9 10 C-8.67 9.34 -8.34 8.68 -8 8 C-7.05125 8.061875 -6.1025 8.12375 -5.125 8.1875 C-3.578125 8.0946875 -3.578125 8.0946875 -2 8 C0.1519437 4.77208445 0.20086443 3.71599191 0 0 Z " fill="#DDDFE7" transform="translate(114,71)"/>
<path d="M0 0 C1.98 0 3.96 0 6 0 C5.67 1.98 5.34 3.96 5 6 C0.125 4.25 0.125 4.25 -1 2 C-0.67 1.34 -0.34 0.68 0 0 Z " fill="#FCE2E6" transform="translate(78,50)"/>
<path d="M0 0 C0 2.31 0 4.62 0 7 C-1.65 7 -3.3 7 -5 7 C-4.67 5.02 -4.34 3.04 -4 1 C-1 0 -1 0 0 0 Z " fill="#DDDAE2" transform="translate(95,32)"/>
<path d="M0 0 C0 2.64 0 5.28 0 8 C-1.32 8 -2.64 8 -4 8 C-4.75 6.25 -4.75 6.25 -5 4 C-1.66666667 0 -1.66666667 0 0 0 Z " fill="#FEFDFD" transform="translate(32,126)"/>
<path d="M0 0 C2.31 0 4.62 0 7 0 C6.02433888 1.16959987 5.044375 2.33561177 4.0625 3.5 C3.51722656 4.1496875 2.97195312 4.799375 2.41015625 5.46875 C1.94480469 5.9740625 1.47945312 6.479375 1 7 C0.67 7 0.34 7 0 7 C0 4.69 0 2.38 0 0 Z " fill="#FEFDFD" transform="translate(32,113)"/>
<path d="M0 0 C2.31 0 4.62 0 7 0 C7 2.31 7 4.62 7 7 C5.83040013 6.02433888 4.66438823 5.044375 3.5 4.0625 C2.8503125 3.51722656 2.200625 2.97195312 1.53125 2.41015625 C1.0259375 1.94480469 0.520625 1.47945312 0 1 C0 0.67 0 0.34 0 0 Z " fill="#DDE2E9" transform="translate(35,60)"/>
<path d="M0 0 C0.66 0.33 1.32 0.66 2 1 C2 3.64 2 6.28 2 9 C0.35 7.68 -1.3 6.36 -3 5 C-1.125 1.125 -1.125 1.125 0 0 Z " fill="#DFCED8" transform="translate(30,49)"/>
<path d="M0 0 C2.04119788 1.61594832 4.04072937 3.2856382 6 5 C6 5.66 6 6.32 6 7 C4.02 7 2.04 7 0 7 C0 4.69 0 2.38 0 0 Z " fill="#FEF5F6" transform="translate(53,116)"/>
<path d="M0 0 C0.99 0.33 1.98 0.66 3 1 C0.03 4.96 0.03 4.96 -3 9 C-3.66 8.67 -4.32 8.34 -5 8 C-3.62845496 5.04590299 -2.01136276 2.55991624 0 0 Z " fill="#E84662" transform="translate(34,86)"/>
<path d="M0 0 C3.36720387 1.39332574 4.9859524 2.9789286 7 6 C4.69 6 2.38 6 0 6 C0 4.02 0 2.04 0 0 Z " fill="#DDDAE2" transform="translate(23,54)"/>
<path d="M0 0 C2.97 0 5.94 0 9 0 C9 0.66 9 1.32 9 2 C5.7 2.66 2.4 3.32 -1 4 C-0.67 2.68 -0.34 1.36 0 0 Z " fill="#DED5DE" transform="translate(65,29)"/>
<path d="M0 0 C2.64 0 5.28 0 8 0 C8 0.99 8 1.98 8 3 C5.03 3 2.06 3 -1 3 C-0.67 2.01 -0.34 1.02 0 0 Z " fill="#FEF8F9" transform="translate(76,99)"/>
<path d="M0 0 C0.99 0.33 1.98 0.66 3 1 C3 2.98 3 4.96 3 7 C0.525 6.01 0.525 6.01 -2 5 C-2 3.68 -2 2.36 -2 1 C-1.34 0.67 -0.68 0.34 0 0 Z " fill="#FEF8F9" transform="translate(50,81)"/>
<path d="M0 0 C0.391875 0.495 0.78375 0.99 1.1875 1.5 C2.93440846 3.21908468 2.93440846 3.21908468 5.5 3.3125 C8.24689917 3.15838815 8.24689917 3.15838815 11 1 C11 2.32 11 3.64 11 5 C7.37 5 3.74 5 0 5 C0 3.35 0 1.7 0 0 Z " fill="#DDDAE3" transform="translate(42,139)"/>
<path d="M0 0 C0.66 0.33 1.32 0.66 2 1 C2 1.66 2 2.32 2 3 C-0.64 3.99 -3.28 4.98 -6 6 C-6 5.34 -6 4.68 -6 4 C-6.66 4 -7.32 4 -8 4 C-7.67 3.34 -7.34 2.68 -7 2 C-5.34385343 1.61781233 -3.67542976 1.28604898 -2 1 C-1.34 0.67 -0.68 0.34 0 0 Z " fill="#E84D69" transform="translate(93,52)"/>
<path d="M0 0 C0 0.66 0 1.32 0 2 C0.66 2 1.32 2 2 2 C1.67 2.66 1.34 3.32 1 4 C-1.06640625 4.4140625 -1.06640625 4.4140625 -3.5625 4.625 C-4.38878906 4.69976562 -5.21507813 4.77453125 -6.06640625 4.8515625 C-7.02353516 4.92503906 -7.02353516 4.92503906 -8 5 C-7.125 3.046875 -7.125 3.046875 -6 1 C-3.86997684 0.20124132 -2.26695035 0 0 0 Z " fill="#EB637B" transform="translate(84,28)"/>
<path d="M0 0 C0.33 0 0.66 0 1 0 C1.33 2.97 1.66 5.94 2 9 C0.68 8.67 -0.64 8.34 -2 8 C-1.125 1.125 -1.125 1.125 0 0 Z " fill="#E2D6DE" transform="translate(62,37)"/>
<path d="M0 0 C0.66 0 1.32 0 2 0 C1.67 2.97 1.34 5.94 1 9 C0.01 9 -0.98 9 -2 9 C-1.34 6.03 -0.68 3.06 0 0 Z " fill="#EA4965" transform="translate(88,34)"/>
<path d="M0 0 C1.32 0.33 2.64 0.66 4 1 C3.6875 2.875 3.6875 2.875 3 5 C2.01 5.66 1.02 6.32 0 7 C0 4.69 0 2.38 0 0 Z " fill="#DED5DE" transform="translate(32,81)"/>
<path d="M0 0 C0 1.65 0 3.3 0 5 C-1.32 5 -2.64 5 -4 5 C-4 3.68 -4 2.36 -4 1 C-2 0 -2 0 0 0 Z " fill="#DED4DD" transform="translate(81,61)"/>
<path d="M0 0 C0.99 0 1.98 0 3 0 C3 1.98 3 3.96 3 6 C2.01 6.33 1.02 6.66 0 7 C0 4.69 0 2.38 0 0 Z " fill="#FDF4F5" transform="translate(42,60)"/>
<path d="M0 0 C2.31 0.33 4.62 0.66 7 1 C7 1.66 7 2.32 7 3 C4.03 3 1.06 3 -2 3 C-1.34 2.01 -0.68 1.02 0 0 Z " fill="#DDDFE7" transform="translate(65,57)"/>
<path d="M0 0 C0.33 0.66 0.66 1.32 1 2 C0.06421005 4.35981813 -0.93347808 6.69631264 -2 9 C-3.32 8.34 -4.64 7.68 -6 7 C-4.02 4.69 -2.04 2.38 0 0 Z " fill="#EBD7DE" transform="translate(65,21)"/>
<path d="M0 0 C1.65 0 3.3 0 5 0 C4.1875 1.9375 4.1875 1.9375 3 4 C2.01 4.33 1.02 4.66 0 5 C0 3.35 0 1.7 0 0 Z " fill="#FEF7F8" transform="translate(23,123)"/>
<path d="M0 0 C1.65 0 3.3 0 5 0 C3.35 1.98 1.7 3.96 0 6 C-0.66 5.67 -1.32 5.34 -2 5 C-1.34 3.35 -0.68 1.7 0 0 Z " fill="#ECCFD7" transform="translate(52,60)"/>
<path d="M0 0 C2.475 0.99 2.475 0.99 5 2 C4.01 2.99 3.02 3.98 2 5 C1.01 4.67 0.02 4.34 -1 4 C-0.67 2.68 -0.34 1.36 0 0 Z " fill="#FCE8EB" transform="translate(75,55)"/>
<path d="M0 0 C0.33 0 0.66 0 1 0 C1 2.64 1 5.28 1 8 C0.34 8 -0.32 8 -1 8 C-1 8.66 -1 9.32 -1 10 C-1.99 9.67 -2.98 9.34 -4 9 C-2.80100302 5.9168649 -1.52299523 2.93720508 0 0 Z " fill="#ED6980" transform="translate(69,104)"/>
<path d="M0 0 C0.33 0 0.66 0 1 0 C1.13277344 0.62648438 1.26554688 1.25296875 1.40234375 1.8984375 C1.57894531 2.71570313 1.75554688 3.53296875 1.9375 4.375 C2.11152344 5.18710938 2.28554687 5.99921875 2.46484375 6.8359375 C2.92330693 9.029463 2.92330693 9.029463 4 11 C2.68 11 1.36 11 0 11 C0 7.37 0 3.74 0 0 Z " fill="#DDD6DE" transform="translate(11,102)"/>
<path d="M0 0 C1.98 0 3.96 0 6 0 C5.34 1.32 4.68 2.64 4 4 C2.68 3.67 1.36 3.34 0 3 C0 2.01 0 1.02 0 0 Z " fill="#DECFD9" transform="translate(23,92)"/>
<path d="M0 0 C2 1.3125 2 1.3125 4 3 C4 3.99 4 4.98 4 6 C2.68 6 1.36 6 0 6 C0 4.02 0 2.04 0 0 Z " fill="#DDDEE6" transform="translate(42,12)"/>
<path d="M0 0 C0.33 0 0.66 0 1 0 C1 1.98 1 3.96 1 6 C-0.32 6 -1.64 6 -3 6 C-2.42655063 3.13275314 -2.1385485 2.1385485 0 0 Z " fill="#DDDFE6" transform="translate(52,12)"/>
<path d="M0 0 C0.99 0.33 1.98 0.66 3 1 C3 2.65 3 4.3 3 6 C2.01 6 1.02 6 0 6 C0 4.02 0 2.04 0 0 Z " fill="#FEFCFC" transform="translate(42,86)"/>
<path d="M0 0 C2.475 0.495 2.475 0.495 5 1 C5 1.66 5 2.32 5 3 C4.34 3 3.68 3 3 3 C2.67 3.66 2.34 4.32 2 5 C1.34 4.34 0.68 3.68 0 3 C0 2.01 0 1.02 0 0 Z " fill="#F094A5" transform="translate(40,81)"/>
<path d="M0 0 C0.99 0 1.98 0 3 0 C2.34 2.97 1.68 5.94 1 9 C0.67 9 0.34 9 0 9 C0 6.03 0 3.06 0 0 Z " fill="#FEF8F9" transform="translate(84,39)"/>
<path d="M0 0 C0.99 0 1.98 0 3 0 C2.34 1.98 1.68 3.96 1 6 C0.34 5.67 -0.32 5.34 -1 5 C-0.67 3.35 -0.34 1.7 0 0 Z " fill="#EACFD8" transform="translate(56,37)"/>
</svg>
